<?xml version="1.0" standalone="no"?>
<!DOCTYPE svg PUBLIC "-//W3C//DTD SVG 1.1//EN" "http://www.w3.org/Graphics/SVG/1.1/DTD/svg11.dtd" >
<svg xmlns="http://www.w3.org/2000/svg" xmlns:xlink="http://www.w3.org/1999/xlink" version="1.1">
<metadata></metadata>
<defs>
<font id="buffonthin" horiz-adv-x="1075" >
<font-face units-per-em="2048" ascent="1638" descent="-410" />
<missing-glyph horiz-adv-x="655" />
<glyph unicode="&#xfb01;" horiz-adv-x="1294" d="M31 932v92h276v229q0 72 10.5 137t37.5 130.5t69 113t111 77.5t157 30q189 0 279 -125t90 -332h-25q0 151 -91 242.5t-255 91.5q-177 0 -267.5 -109.5t-90.5 -302.5v-182h725v-485q0 -72 0.5 -119.5t3 -100.5t7 -85t12.5 -67t19.5 -55t27 -39t37.5 -28t48.5 -14.5 t61.5 -5.5v-25h-461v25q35 0 62.5 5.5t49.5 14.5t38 28.5t27.5 38.5t19 54.5t12 67.5t7 85.5t3 100t0.5 119.5v55q0 87 -14.5 147.5t-40.5 98t-71 58t-95.5 27.5t-124.5 7h-354v-596q3 -76 15 -128t40 -96t80.5 -65.5t130.5 -21.5v-25h-510v25q63 0 106 20.5t66 63.5 t33.5 93t13.5 124v606h-276z" />
<glyph unicode="&#xfb02;" horiz-adv-x="1290" d="M31 932v92h276v229q0 73 7 137.5t26.5 130.5t50.5 113.5t82 77t117 29.5q103 0 168 -68l295 68v-1202q0 -72 0.5 -119.5t3 -100.5t7 -85t12.5 -67t19.5 -55t27 -39t37.5 -28t48.5 -14.5t61.5 -5.5v-25h-461v25q35 0 62.5 5.5t49.5 14.5t38 28.5t27.5 38.5t19 54.5 t12 67.5t7 85.5t3 100t0.5 119.5v809q0 145 -87.5 221t-254.5 76q-105 0 -176 -30t-109 -90.5t-53.5 -136t-15.5 -182.5v-182h409v-92h-409v-596q3 -76 15 -128t40 -96t80.5 -65.5t130.5 -21.5v-25h-510v25q63 0 106 20.5t66 63.5t33.5 93t13.5 124v606h-276z" />
<glyph horiz-adv-x="0" />
<glyph horiz-adv-x="682" />
<glyph unicode=" "  horiz-adv-x="655" />
<glyph unicode="&#x09;" horiz-adv-x="655" />
<glyph unicode="&#xa0;" horiz-adv-x="655" />
<glyph unicode="!" horiz-adv-x="528" d="M143 1397v119h242v-119q-45 -59 -74.5 -270.5t-29.5 -487.5v-262h-37v262q0 273 -29.5 485.5t-71.5 272.5zM145 88q0 51 34 84t85 33t84 -33t33 -84q0 -52 -33 -85.5t-84 -33.5t-85 33.5t-34 85.5z" />
<glyph unicode="&#x22;" horiz-adv-x="503" d="M143 1516h35l-6 -457h-25zM326 1516h34l-6 -457h-24z" />
<glyph unicode="#" horiz-adv-x="1273" d="M123 465v119h272l49 321h-264v119h283l63 414h33l-63 -414h360l64 414h32l-63 -414h262v-119h-281l-49 -321h273v-119h-289l-72 -465h-33l72 465h-360l-72 -465h-33l72 465h-256zM428 584h360l50 321h-361z" />
<glyph unicode="$" horiz-adv-x="1198" d="M123 401h29q0 -92 65 -162.5t171 -107.5t235 -39v678q-51 17 -81.5 27.5t-73.5 26.5t-68.5 29t-58 32t-51.5 38t-39.5 44t-31 53t-17.5 62.5t-7 74.5q0 170 111 281.5t317 117.5v160h30v-160q74 -1 135.5 -18t103 -43t73 -62.5t49.5 -72.5t29 -76.5t14.5 -71.5t3.5 -61 h-29q0 90 -54 154t-137 93.5t-188 33.5v-635q77 -26 131.5 -49t113.5 -59t94.5 -77t59 -100.5t23.5 -132.5q0 -53 -11 -105t-41 -107.5t-76 -98t-121.5 -71.5t-172.5 -32v-170h-30v170q-119 0 -215.5 35.5t-158 96t-94 138.5t-32.5 166zM231 1143q0 -42 11.5 -78.5t27.5 -63 t46 -51.5t55 -41t68.5 -34.5t71 -28.5t77.5 -27q23 -8 35 -12v625q-112 0 -198.5 -29.5t-140 -96t-53.5 -163.5zM653 92q184 3 284.5 81.5t100.5 217.5q0 137 -96.5 221t-288.5 148v-668z" />
<glyph unicode="%" horiz-adv-x="1593" d="M123 1149q0 128 81.5 216.5t201.5 88.5t201 -88.5t81 -216.5t-81.5 -217.5t-200.5 -89.5t-201 89.5t-82 217.5zM150 1151q0 -98 71.5 -161.5t184.5 -63.5t184.5 63.5t71.5 161.5q0 97 -71 158t-185 61t-185 -61t-71 -158zM293 0l975 1434h37l-975 -1434h-37zM905 279 q0 128 81.5 216.5t201.5 88.5t201 -88.5t81 -216.5t-81.5 -218t-200.5 -90t-201 90t-82 218zM932 281q0 -98 71.5 -162t184.5 -64t184.5 64t71.5 162q0 97 -71 158t-185 61t-185 -61t-71 -158z" />
<glyph unicode="&#x26;" horiz-adv-x="1808" d="M123 391q0 74 19.5 137t51 108.5t79.5 85t96 66t110 52.5q-2 4 -28.5 45t-34 53.5t-27.5 50.5t-27 62.5t-14.5 61.5t-7.5 73q0 54 13 106t42 100.5t70 85.5t101 59t132 22q77 0 138 -26t98 -65.5t61.5 -92t33.5 -101t9 -96.5q0 -189 -167 -302q-83 -56 -271 -127 q-5 -2 -33 -12q177 -242 301 -378t244 -201q154 139 209 344q12 46 5.5 88t-28 74.5t-77 51.5t-140.5 19v25h605v-25q-131 0 -213.5 -60t-116.5 -153q-58 -226 -219 -377q109 -53 231 -53q76 0 137.5 18t98.5 47t59 59t29 60h24q0 -27 -9.5 -63t-34.5 -79.5t-60.5 -79.5 t-94 -60.5t-128.5 -24.5q-159 0 -312 125q-193 -145 -438 -145q-82 0 -156 16t-140.5 50.5t-115 85t-76.5 125t-28 165.5zM152 356q0 -166 133.5 -272.5t351.5 -106.5q235 0 420 134q-30 25 -62.5 57.5t-57.5 59t-64.5 74t-59.5 71.5t-67 86t-62 82.5t-70.5 95.5t-68.5 92 q-52 -19 -87 -33.5t-80 -36t-74.5 -41.5t-60.5 -48.5t-49.5 -59t-30 -70t-11.5 -84.5zM367 1186q0 -141 135 -338q41 16 103.5 38t104.5 37.5t93.5 37t85 43.5t64 51t45 66t14.5 81q0 104 -82.5 167t-239.5 63q-148 0 -235.5 -60t-87.5 -186z" />
<glyph unicode="'" horiz-adv-x="321" d="M143 1516h35l-6 -457h-25z" />
<glyph unicode="(" horiz-adv-x="661" d="M143 551q0 314 134.5 572t388.5 429l16 -24q-504 -367 -504 -977t504 -977l-16 -25q-254 171 -388.5 429.5t-134.5 572.5z" />
<glyph unicode=")" horiz-adv-x="661" d="M-20 -426q503 366 503 977t-503 977l16 24q254 -171 388 -429t134 -572q0 -315 -134 -573t-388 -429z" />
<glyph unicode="*" horiz-adv-x="933" d="M123 1040q194 53 321 119q-156 75 -319 117l70 121q146 -142 262 -219q-11 160 -60 340h140q-51 -202 -60 -340q141 93 264 219l70 -121q-188 -52 -319 -117q153 -76 319 -119l-70 -120q-141 137 -262 219q8 -151 58 -334h-140q51 199 58 334q-141 -95 -262 -219z" />
<glyph unicode="+" horiz-adv-x="1064" d="M123 559v31h393v391h31v-391h395v-31h-395v-397h-31v397h-393z" />
<glyph unicode="," horiz-adv-x="530" d="M143 88q0 52 33 85.5t88 33.5q123 0 123 -184q0 -52 -10 -101t-33 -97.5t-68 -81t-108 -38.5v27q55 7 94 35.5t58.5 69.5t27.5 80.5t8 80.5q-37 -29 -88 -29q-55 0 -90 32t-35 87z" />
<glyph unicode="-" horiz-adv-x="800" d="M143 561v31h514v-31h-514z" />
<glyph unicode="." horiz-adv-x="522" d="M143 88q0 51 34 84t85 33t84 -33t33 -84q0 -52 -33 -85.5t-84 -33.5t-85 33.5t-34 85.5z" />
<glyph unicode="/" horiz-adv-x="970" d="M143 0l648 1516h36l-647 -1516h-37z" />
<glyph unicode="0" horiz-adv-x="1273" d="M123 772q0 232 57.5 407t175 276t281.5 101q163 0 280.5 -100.5t175.5 -276t58 -407.5q0 -234 -58 -413.5t-175.5 -284.5t-280.5 -105q-164 0 -281.5 105.5t-175 285t-57.5 412.5zM154 768q0 -168 40 -298t109 -208.5t154.5 -118t183.5 -39.5q99 0 184 40.5t152 120 t105 209.5t38 298q0 167 -38 295t-104.5 203.5t-150.5 113t-182 37.5q-100 0 -186 -38t-155.5 -114.5t-109.5 -205t-40 -295.5z" />
<glyph unicode="1" horiz-adv-x="788" d="M82 1370v29q254 0 319 157h29v-1058q0 -143 12.5 -230.5t45 -142.5t84 -75.5t135.5 -20.5v-29h-584v29q113 0 171.5 41t82.5 139t24 289v581q0 44 -1.5 76.5t-6 61t-9.5 48.5t-17 37t-23 27.5t-32.5 18.5t-40 12t-52 6.5t-62 3t-75.5 0.5z" />
<glyph unicode="2" horiz-adv-x="1120" d="M123 0v84l385 389q162 165 205 214q141 162 172 301q10 47 10 95q0 158 -97.5 248t-254.5 90q-141 0 -234.5 -76.5t-134.5 -224.5h-27q32 201 138 318.5t282 117.5q94 0 167.5 -35.5t117 -96t66 -135t22.5 -159.5q0 -76 -19.5 -147t-49 -127.5t-83.5 -123.5t-102 -118.5 t-125 -129.5l-29 -29l-366 -371h436q82 0 132 2.5t98.5 12.5t74.5 27t46.5 47.5t28 74t7.5 106.5h29v-354h-895z" />
<glyph unicode="3" horiz-adv-x="1087" d="M82 324l29 10q30 -107 145 -168.5t270 -61.5q190 0 299 91t109 239q0 107 -61.5 179.5t-162.5 104.5t-237 32q-23 0 -131 -5v115q106 0 194.5 15t164 47.5t118.5 93t43 143.5q0 87 -47 148t-118.5 87.5t-159.5 26.5q-144 0 -251.5 -74.5t-138.5 -224.5h-28q9 65 29 125.5 t55.5 117.5t82 98.5t112.5 67t143 25.5q88 0 158 -32t112 -86.5t64 -122.5t22 -144q0 -295 -324 -360q392 -70 392 -389q0 -86 -28.5 -166t-81.5 -144.5t-138.5 -103.5t-190.5 -39q-94 0 -172.5 31.5t-131.5 84.5t-87.5 113t-52.5 126z" />
<glyph unicode="4" horiz-adv-x="1191" d="M102 487v101l635 968h29v-968h324v-101h-324q1 -140 13.5 -225t45 -139t83.5 -74t134 -20v-29h-583v29q85 0 136 20t84 74t45 139t13 225h-635zM139 588h598v715h-131z" />
<glyph unicode="5" horiz-adv-x="1087" d="M102 324l31 10q21 -79 87.5 -132.5t146 -75.5t168.5 -22q195 0 307 106.5t112 272.5q0 163 -115 260t-350 97q-165 0 -299 -54l97 730h657v-103h-637l-76 -588l7 -4q44 53 126.5 93t194.5 40q102 0 184 -38t134 -103t80 -150.5t28 -183.5q0 -73 -14.5 -143t-48.5 -137 t-83 -117.5t-124 -81.5t-166 -31q-76 0 -143 21t-116 56t-88 81.5t-63 95.5t-37 101z" />
<glyph unicode="6" horiz-adv-x="1157" d="M143 649q0 108 13.5 214t39.5 208.5t69 189.5t98 153.5t130 104t162 37.5q75 0 140 -27t107.5 -70t69 -85.5t38.5 -83.5l-29 -10q-48 77 -138.5 109t-189.5 32q-252 0 -364 -206t-117 -637l8 -3q18 48 43 92.5t64 91.5t85.5 81t110 56t133.5 22q84 0 159.5 -30.5 t133 -86.5t91.5 -141.5t34 -188.5q0 -73 -16.5 -143.5t-52 -136t-86 -114.5t-124.5 -78.5t-161 -29.5q-220 0 -335.5 179.5t-115.5 500.5zM197 449q0 -148 112 -246.5t285 -98.5q178 0 290.5 102t112.5 253q0 148 -110.5 242t-282.5 94q-177 0 -292 -97.5t-115 -248.5z" />
<glyph unicode="7" horiz-adv-x="1073" d="M82 1163v353h950v-82l-561 -1106q-39 -86 -39 -146q0 -67 40 -110t124 -43v-29h-317v29l714 1405h-495q-70 0 -115 -2t-90 -8t-71.5 -18.5t-50.5 -31.5t-35.5 -49t-18 -69t-6.5 -93h-29z" />
<glyph unicode="8" horiz-adv-x="1064" d="M82 432q0 130 65 231t181 150q-84 48 -133.5 141.5t-49.5 206.5q0 107 44 196.5t133.5 145.5t209.5 56q179 0 284.5 -116.5t105.5 -283.5q0 -111 -48.5 -204t-132.5 -142q115 -51 178.5 -151t63.5 -228q0 -119 -52 -223.5t-157 -173t-242 -68.5q-103 0 -190 39 t-142.5 104t-86.5 148t-31 172zM113 434q0 -102 58 -178.5t152 -114t209 -37.5t209.5 37.5t152.5 114t58 178.5q0 151 -121 238.5t-299 87.5t-298.5 -87.5t-120.5 -238.5zM176 1149q0 -130 104.5 -212.5t251.5 -82.5t253 82.5t106 212.5q0 86 -50.5 149t-131 93t-177.5 30 q-150 0 -253 -72t-103 -200z" />
<glyph unicode="9" horiz-adv-x="1157" d="M123 1055q0 73 16.5 143.5t52 135.5t86 114t124.5 78.5t161 29.5q220 0 335.5 -179t115.5 -500q0 -108 -13.5 -214t-39.5 -208.5t-69 -190t-98 -154t-130 -104t-162 -37.5q-75 0 -140 27.5t-107.5 70t-69 85.5t-38.5 84l29 10q48 -77 138.5 -109.5t189.5 -32.5 q252 0 364 206.5t117 637.5l-8 2q-18 -47 -43 -92t-64 -91.5t-85.5 -80.5t-110 -56t-133.5 -22q-84 0 -159.5 30.5t-133 86.5t-91.5 141.5t-34 188.5zM160 1067q0 -148 110.5 -242t282.5 -94q177 0 292.5 97.5t115.5 248.5q0 147 -112.5 245.5t-285.5 98.5 q-178 0 -290.5 -101.5t-112.5 -252.5z" />
<glyph unicode=":" horiz-adv-x="522" d="M143 86q0 51 34 84t85 33t84 -33t33 -84q0 -52 -33 -85.5t-84 -33.5t-85 33.5t-34 85.5zM143 948q0 51 34 84t85 33t84 -33t33 -84q0 -52 -33 -85.5t-84 -33.5t-85 33.5t-34 85.5z" />
<glyph unicode=";" horiz-adv-x="534" d="M143 946q0 51 34 84t85 33t84 -33t33 -84q0 -52 -33 -85.5t-84 -33.5t-85 33.5t-34 85.5zM147 88q0 52 33 85.5t88 33.5q123 0 123 -184q0 -52 -10 -101t-33 -97.5t-68 -81t-108 -38.5v27q55 7 94 35.5t58.5 69.5t27.5 80.5t8 80.5q-37 -29 -88 -29q-55 0 -90 32t-35 87z " />
<glyph unicode="&#x3c;" horiz-adv-x="1003" d="M123 535l758 -385v34l-711 355v6l711 354v35l-758 -385v-14z" />
<glyph unicode="=" horiz-adv-x="1064" d="M123 408v30h819v-30h-819zM123 686v31h819v-31h-819z" />
<glyph unicode="&#x3e;" horiz-adv-x="1003" d="M123 154l758 385v14l-758 385v-35l711 -354v-6l-711 -355v-34z" />
<glyph unicode="?" horiz-adv-x="1042" d="M102 1161q35 186 142.5 290.5t290.5 104.5q102 0 180.5 -33t127 -91.5t73 -135t24.5 -166.5q0 -84 -21 -161.5t-61 -141.5t-107 -102.5t-151 -38.5q-102 0 -149 47h-7v-368h-32v407q242 0 369.5 99.5t127.5 256.5q0 137 -96.5 215t-261.5 78q-155 0 -262 -69t-158 -191 h-29zM305 88q0 51 34 84t85 33t84 -33t33 -84q0 -52 -33 -85.5t-84 -33.5t-85 33.5t-34 85.5z" />
<glyph unicode="@" horiz-adv-x="1812" d="M123 518q0 161 41.5 311.5t118.5 272t181 212.5t235.5 141t275.5 50q149 0 278.5 -54.5t227 -155.5t153.5 -256t56 -345q0 -82 -10 -162t-33.5 -157.5t-58 -136t-87.5 -94t-117 -35.5q-107 0 -172.5 89.5t-70.5 237.5h-6q-49 -152 -143 -238.5t-195 -86.5 q-103 0 -167.5 93t-64.5 261q0 151 51.5 289t142.5 224.5t197 86.5q151 0 199 -188h10l54 147h30q-10 -41 -30 -118.5t-27 -110t-14 -90t-7 -119.5q0 -181 52 -277t170 -96q77 0 132 40.5t83 109.5t40.5 143.5t12.5 159.5q0 150 -37 273t-101.5 207.5t-153.5 142.5t-191 85 t-217 27q-178 0 -330 -67t-256.5 -183t-163.5 -276t-59 -343q0 -337 188 -520.5t506 -183.5q132 0 255 32.5t193 100.5l21 -16q-214 -221 -494 -221q-109 0 -210.5 31.5t-190.5 97t-155 158t-104 223.5t-38 284zM594 504q0 -130 56 -207.5t173 -77.5q81 0 144.5 39.5 t100.5 103.5t56 138t19 151q0 134 -56.5 219.5t-168.5 85.5q-75 0 -138 -40.5t-103 -106t-61.5 -145t-21.5 -160.5z" />
<glyph unicode="A" horiz-adv-x="1695" d="M20 0v29q55 0 100.5 19t81.5 51.5t72.5 91.5t66 122.5t69.5 161.5l219 543q79 193 79 304q0 29 -6 52q-26 113 -188 113v29h356l439 -1088q44 -109 77 -175.5t76.5 -121.5t94.5 -78.5t118 -23.5v-29h-542v29q109 0 152.5 46.5t43.5 127.5q0 52 -18.5 114t-75.5 205 l-27 68h-721l-26 -68q-57 -143 -75.5 -205t-18.5 -114q0 -81 43.5 -127.5t152.5 -46.5v-29h-543zM500 616h698l-301 746h-96z" />
<glyph unicode="B" horiz-adv-x="1396" d="M92 0v29q54 0 97 12.5t72 32.5t50.5 51t33.5 63t19 75t9 79t2 82v668q0 46 -2 82t-9 79t-19 75t-33.5 63t-50.5 51t-72 32.5t-97 12.5v29h580q250 0 385 -107.5t135 -284.5q0 -140 -81.5 -220t-217.5 -109v-11q60 -10 108.5 -24t101.5 -42t88.5 -66t59 -99.5t23.5 -138.5 q0 -201 -143.5 -307.5t-411.5 -106.5h-627zM403 123h336q241 0 372.5 81t131.5 236q0 161 -143.5 245.5t-421.5 84.5h-275v-647zM403 797h228q264 0 397 81t133 222q0 133 -116 213t-351 80h-291v-596z" />
<glyph unicode="C" horiz-adv-x="1519" d="M123 776q0 225 84.5 403.5t234.5 277.5t338 99q302 0 477 -258h13l73 218h29v-410h-29q-156 321 -546 321q-139 0 -254 -39t-203 -116.5t-137 -204.5t-49 -293q0 -169 51 -299.5t142 -211t211 -121t265 -40.5q227 0 365 93t192 245h27q-24 -83 -70 -161t-117 -150 t-177 -116t-230 -44q-144 0 -271 59.5t-219.5 164.5t-146 256.5t-53.5 326.5z" />
<glyph unicode="D" horiz-adv-x="1632" d="M92 0v29q54 0 97 12.5t72 32.5t50.5 51t33.5 63t19 75t9 79t2 82v668q0 46 -2 82t-9 79t-19 75t-33.5 63t-50.5 51t-72 32.5t-97 12.5v29h621q191 0 342.5 -47t260 -139.5t166.5 -237.5t58 -334t-58 -334t-166.5 -237.5t-260 -139.5t-342.5 -47h-621zM403 123h289 q184 0 323 27.5t233 78t152.5 129t83.5 174.5t25 220q0 161 -43.5 278t-139 199.5t-253 123t-381.5 40.5h-289v-1270z" />
<glyph unicode="E" horiz-adv-x="1345" d="M92 0v29q54 0 97 12.5t72 32.5t50.5 51t33.5 63t19 75t9 79t2 82v668q0 46 -2 82t-9 79t-19 75t-33.5 63t-50.5 51t-72 32.5t-97 12.5v29h1100v-353h-29q0 54 -6.5 93t-18 69t-35.5 49t-50.5 31.5t-71.5 18.5t-90 8t-115 2h-373v-662h414l82 217h29v-463h-29l-82 219 h-414v-663h435q61 0 102 1.5t82.5 6t68 12t51.5 21.5t39 32.5t25 46t15 62t4 80.5h28v-344h-1161z" />
<glyph unicode="F" horiz-adv-x="1284" d="M92 1487v29h1100v-353h-29q0 54 -6.5 93t-18 69t-35.5 49t-50.5 31.5t-71.5 18.5t-90 8t-115 2h-373v-660h414l82 217h29v-463h-29l-82 220h-414v-250q0 -75 2 -127t9 -102.5t18 -82.5t30 -61.5t45 -45.5t63.5 -28.5t83.5 -17t108 -4.5v-29h-666v29q85 0 137 20.5 t85 75.5t45 142.5t12 230.5v594q0 46 -2 82t-9 79t-19 75t-33.5 63t-50.5 51t-72 32.5t-97 12.5z" />
<glyph unicode="G" horiz-adv-x="1714" d="M123 768q0 -232 88 -414t245.5 -283.5t356.5 -101.5q291 0 438 219h11l63 -188h31v293q0 59 1.5 102t7 93t15.5 85t27 69t41 55t59 33.5t80 12.5v27h-571v-27q92 0 154.5 -18.5t96 -55.5t47 -83t13.5 -111q0 -191 -115.5 -281t-359.5 -90q-336 0 -517 164.5t-181 497.5 q0 170 48.5 298.5t137.5 207t206.5 117t262.5 38.5q188 0 312.5 -72t209.5 -249h31v410h-31l-69 -211h-13q-34 49 -76 90.5t-100 79t-134.5 59.5t-162.5 22q-138 0 -259 -58t-207.5 -161t-136.5 -250.5t-50 -318.5z" />
<glyph unicode="H" horiz-adv-x="1800" d="M92 0v29q85 0 137 20.5t85 75.5t45 142.5t12 230.5v520q0 143 -12 230.5t-45 142.5t-85 75.5t-137 20.5v29h666v-29q-62 0 -108 -4.5t-83.5 -17t-63.5 -28.5t-45 -45.5t-30 -61.5t-18 -82.5t-9 -102.5t-2 -127v-244h1002v244q0 75 -2 127t-9 102.5t-18 82.5t-30 61.5 t-45 45.5t-63.5 28.5t-83.5 17t-108 4.5v29h666v-29q-113 0 -171.5 -41t-82.5 -139t-24 -289v-520q0 -191 24 -289t82.5 -139t171.5 -41v-29h-666v29q62 0 108 4.5t83.5 17t63.5 28.5t45 45.5t30 61.5t18 82.5t9 102.5t2 127v250h-1002v-250q0 -75 2 -127t9 -102.5t18 -82.5 t30 -61.5t45 -45.5t63.5 -28.5t83.5 -17t108 -4.5v-29h-666z" />
<glyph unicode="I" horiz-adv-x="768" d="M92 0v29q85 0 137 20.5t85 75.5t45 142.5t12 230.5v520q0 143 -12 230.5t-45 142.5t-85 75.5t-137 20.5v29h584v-29q-84 0 -135.5 -20.5t-84 -75.5t-45 -142.5t-12.5 -230.5v-520q0 -143 12.5 -230.5t45 -142.5t84 -75.5t135.5 -20.5v-29h-584z" />
<glyph unicode="J" horiz-adv-x="1064" d="M53 440h29q0 -158 92.5 -253t245.5 -95q50 0 93 11t85.5 40t72 75t48 121t18.5 173v506q0 101 -4 164.5t-17.5 121.5t-36.5 88.5t-64 54.5t-97.5 32t-138.5 8v29h665v-29q-113 0 -171.5 -41t-82.5 -139t-24 -289v-502q0 -258 -87 -402.5t-257 -144.5q-88 0 -160 40.5 t-116.5 108t-68.5 150.5t-24 172z" />
<glyph unicode="K" horiz-adv-x="1730" d="M92 -2v29q85 0 137 20.5t85 75.5t45 142.5t12 230.5v522q0 143 -12 230.5t-45 142.5t-85 75.5t-137 20.5v29h666v-29q-62 0 -108 -4.5t-83.5 -17t-63.5 -28.5t-45 -45.5t-30 -61.5t-18 -82.5t-9 -102.5t-2 -127v-248h234l342 340l4 4l151 150q30 36 42 60.5t12 53.5 q0 109 -158 109v29h584v-29q-49 0 -96.5 -11t-93 -35t-81.5 -46.5t-81 -62.5t-70.5 -64t-70.5 -69l-62 -62l-396 -379l388 -352q4 -3 11 -10.5t11 -10.5l164 -149q121 -110 209.5 -158.5t195.5 -48.5v-29h-583v29q157 0 157 106q0 42 -28 84.5t-97 106.5l-454 417h-234v-247 q0 -75 2 -127t9 -102.5t18 -82.5t30 -61.5t45 -45.5t63.5 -28.5t83.5 -17t108 -4.5v-29h-666z" />
<glyph unicode="L" horiz-adv-x="1312" d="M92 0v29q54 0 97 12.5t72 32.5t50.5 51t33.5 63t19 75t9 79t2 82v594q0 143 -12 230.5t-45 142.5t-85 75.5t-137 20.5v29h584v-29q-84 0 -135.5 -20.5t-84 -75.5t-45 -142.5t-12.5 -230.5v-936h402q82 0 132 2.5t98.5 12.5t74.5 27t46.5 47.5t28 74t7.5 106.5h29v-352 h-1129z" />
<glyph unicode="M" horiz-adv-x="2088" d="M92 1487v29h375l487 -1244h181l487 1244h375v-29q-54 0 -97 -12.5t-72 -32.5t-50.5 -51t-33.5 -63t-19 -75t-9 -79t-2 -82v-594q0 -143 12.5 -230.5t45 -142.5t84 -75.5t135.5 -20.5v-29h-584v29q85 0 137 20.5t85 75.5t45 142.5t12 230.5v864h-91l-532 -1362h-37 l-532 1362h-91v-864q0 -143 12.5 -230.5t45 -142.5t84 -75.5t135.5 -20.5v-29h-584v29q85 0 137 20.5t85 75.5t45 142.5t12 230.5v594q0 46 -2 82t-9 79t-19 75t-33.5 63t-50.5 51t-72 32.5t-97 12.5z" />
<glyph unicode="N" horiz-adv-x="1861" d="M92 1487v29h324l966 -1342h101v844q0 75 -2 127t-9 102.5t-18 82.5t-30 61.5t-45 45.5t-63.5 28.5t-83.5 17t-108 4.5v29h666v-29q-85 0 -137 -20.5t-85 -75.5t-45 -142.5t-12 -230.5v-1018h-41l-978 1362h-89v-864q0 -75 2 -127t9 -102.5t18 -82.5t30 -61.5t45 -45.5 t63.5 -28.5t83.5 -17t108 -4.5v-29h-666v29q85 0 137 20.5t85 75.5t45 142.5t12 230.5v594q0 46 -2 82t-9 79t-19 75t-33.5 63t-50.5 51t-72 32.5t-97 12.5z" />
<glyph unicode="O" horiz-adv-x="1648" d="M123 768q0 163 54 309t147 251t223.5 166.5t277.5 61.5q196 0 357 -104t252.5 -285t91.5 -399q0 -163 -54 -310.5t-146.5 -255t-223 -170.5t-277.5 -63q-196 0 -357.5 107t-253 290.5t-91.5 401.5zM154 768q0 -130 34.5 -239t95.5 -187t145.5 -132t184 -80t211.5 -26 q140 0 260.5 42t212.5 122.5t144.5 209t52.5 290.5q0 163 -52.5 289.5t-144.5 205t-212 118.5t-261 40t-261 -40t-212.5 -118.5t-145 -205t-52.5 -289.5z" />
<glyph unicode="P" horiz-adv-x="1284" d="M92 1487v29h580q252 0 386 -109.5t134 -316.5q0 -402 -514 -402h-275v-192q0 -75 2 -127t9 -102.5t18 -82.5t30 -61.5t45 -45.5t63.5 -28.5t83.5 -17t108 -4.5v-29h-666v29q85 0 137 20.5t85 75.5t45 142.5t12 230.5v596q0 46 -2 82t-9 79t-19 75t-33.5 63t-50.5 51 t-72 32.5t-97 12.5zM403 715h289q115 0 202.5 25.5t136.5 63t80 90t40.5 97.5t9.5 94q0 165 -119 236.5t-348 71.5h-291v-678z" />
<glyph unicode="Q" horiz-adv-x="1597" d="M123 768q0 163 54 309t147 251t223.5 166.5t277.5 61.5q196 0 357 -104t252.5 -285t91.5 -399q0 -157 -49.5 -299.5t-135.5 -248.5t-208 -172.5t-261 -76.5q26 -49 54.5 -90t69.5 -82.5t87.5 -70t109.5 -46.5t134 -18q135 0 222.5 58.5t121.5 156.5h29 q0 -48 -21.5 -104.5t-63 -112.5t-116 -93.5t-166.5 -37.5q-80 0 -152.5 30t-122.5 73t-96 106.5t-73 115t-53 113.5h-11q-196 0 -357.5 107t-253 290.5t-91.5 401.5zM154 768q0 -130 34.5 -239t95.5 -187t145.5 -132t184 -80t211.5 -26q140 0 260.5 42t212.5 122.5 t144.5 209t52.5 290.5q0 163 -52.5 289.5t-144.5 205t-212 118.5t-261 40t-261 -40t-212.5 -118.5t-145 -205t-52.5 -289.5z" />
<glyph unicode="R" horiz-adv-x="1474" d="M92 1487v29h641q234 0 367 -106t133 -288q0 -75 -24.5 -135t-79.5 -110t-155.5 -77.5t-240.5 -27.5h-84l350 -430l5 -6l88 -109q182 -198 362 -198v-29h-584v29q199 0 199 106q0 73 -94 191l-363 446h-209v-274q0 -143 12.5 -230.5t45 -142.5t84 -75.5t135.5 -20.5v-29 h-584v29q85 0 137 20.5t85 75.5t45 142.5t12 230.5v594q0 46 -2 82t-9 79t-19 75t-33.5 63t-50.5 51t-72 32.5t-97 12.5zM403 803h330q239 0 354 80.5t115 218.5q0 291 -506 291h-293v-590z" />
<glyph unicode="S" horiz-adv-x="1327" d="M123 0v399h29q138 -307 587 -307q432 0 432 287q0 42 -10 79.5t-25 67t-42.5 56.5t-53 46.5t-66.5 38.5t-72.5 31.5t-81.5 27t-83.5 23t-87.5 21.5q-51 12 -81.5 20t-77 21t-75 23.5t-67 26.5t-63 32t-52.5 36.5t-45 44t-32.5 52t-22 62t-6.5 71.5q0 170 129 283.5 t324 113.5q154 0 268 -69.5t174 -165.5h12l76 195h27v-373h-27q-72 143 -195.5 213.5t-314.5 70.5q-90 0 -167 -16t-139 -48.5t-97 -87.5t-35 -128q0 -36 9.5 -68.5t24 -58t41.5 -49t51 -40.5t64 -34t70 -28t78.5 -24.5t80.5 -21.5t85 -20q71 -17 112.5 -27.5t106 -32 t103 -42.5t84.5 -55t71.5 -72.5t43 -93t17.5 -118.5q0 -76 -22 -142.5t-70 -124.5t-135 -92t-205 -34q-304 0 -530 238h-13l-77 -207h-29z" />
<glyph unicode="T" horiz-adv-x="1239" d="M20 1163v353h1199v-353h-29q0 66 -12.5 112t-46 84.5t-98 57.5t-161.5 19h-239v-938q0 -143 12 -230.5t45 -142.5t84 -75.5t135 -20.5v-29h-583v29q113 0 171.5 41t82.5 139t24 289v938h-239q-97 0 -161 -18.5t-97 -56.5t-45.5 -84t-12.5 -114h-29z" />
<glyph unicode="U" horiz-adv-x="1671" d="M20 1487v29h584v-29q-84 0 -135 -20.5t-84 -75.5t-45 -142.5t-12 -230.5v-373q0 -541 510 -541q508 0 508 541v373q0 143 -12 230.5t-45 142.5t-85 75.5t-137 20.5v29h584v-29q-84 0 -135.5 -20.5t-84 -75.5t-45 -142.5t-12.5 -230.5v-387q-6 -662 -536 -662 q-533 0 -539 662v387q0 143 -12 230.5t-45 142.5t-85 75.5t-137 20.5z" />
<glyph unicode="V" horiz-adv-x="1695" d="M20 1487v29h543v-29q-196 0 -196 -172q0 -51 20 -120t74 -202l289 -721h194l291 721q94 230 94 322q0 172 -196 172v29h542v-29q-41 0 -76.5 -10t-64 -26.5t-56.5 -48t-49 -62.5t-46.5 -84t-45.5 -98t-49 -118l-422 -1040h-41l-438 1087q-35 87 -62 144t-60.5 110 t-67.5 82.5t-78.5 46.5t-98.5 17z" />
<glyph unicode="W" horiz-adv-x="2332" d="M20 1487v29h543v-29q-55 0 -93 -17t-56 -49q-18 -33 -26 -73q-4 -22 -5 -48q0 -20 3 -44q6 -52 18 -104.5t32 -113.5l236 -725h155l199 707q35 134 35 237.5t-48.5 166.5t-138.5 63v29h586v-29q-91 0 -139.5 -63.5t-48.5 -165.5t33 -230l200 -715h156l235 725 q20 61 32 113q12 53 18 105q3 23 3 44q-1 26 -5 48q-8 40 -26 72.5t-56 49.5t-93 17v29h543v-29q-60 0 -113 -27t-92 -70t-75 -107.5t-61 -126t-50 -140.5l-330 -1016h-28l-385 1362h-19l-389 -1362h-31l-348 1071q-29 89 -62.5 158.5t-78 130.5t-103 94t-127.5 33z" />
<glyph unicode="X" horiz-adv-x="1708" d="M20 0v29q98 0 202 67t194 170l422 535l-353 450q-90 103 -193.5 169.5t-199.5 66.5v29h584v-29q-88 0 -130 -39.5t-42 -99.5q0 -68 61 -148l293 -377l289 371q65 90 65 152q0 61 -42 101t-130 40v29h584v-29q-103 0 -217 -77.5t-201 -188.5l-22 -29l-15 -18l-292 -373 l419 -539q89 -102 192 -167.5t200 -65.5v-29h-584v29q88 0 130 40t42 101q0 39 -18.5 76t-61.5 96h2l-344 438l-342 -438q-41 -55 -60.5 -95t-19.5 -79q0 -59 42.5 -99t129.5 -40v-29h-584z" />
<glyph unicode="Y" horiz-adv-x="1599" d="M20 1487v29h584v-29q-88 0 -130 -40t-42 -101q0 -35 15 -67.5t47 -80.5l305 -420l321 441q47 73 47 129q0 60 -42 99.5t-130 39.5v29h584v-29q-105 0 -216 -77t-206 -193l-344 -465v-254q0 -143 12.5 -230.5t45 -142.5t84 -75.5t135.5 -20.5v-29h-584v29q113 0 171.5 41 t82.5 139t24 289v254l-352 477q-93 111 -202 184.5t-210 73.5z" />
<glyph unicode="Z" horiz-adv-x="1472" d="M92 0v82l1198 1352h-729q-70 0 -115 -2t-90 -8t-71.5 -18.5t-50.5 -31.5t-35.5 -49t-18 -69t-6.5 -93h-29v353h1188v-82l-1196 -1352h828q82 0 132 2.5t98.5 12.5t74.5 27t46.5 47.5t28 74t7.5 106.5h28v-352h-1288z" />
<glyph unicode="[" horiz-adv-x="614" d="M143 -377v1893h328v-31h-297v-1831h297v-31h-328z" />
<glyph unicode="\" horiz-adv-x="970" d="M143 1516h37l647 -1516h-36z" />
<glyph unicode="]" horiz-adv-x="614" d="M143 -346h297v1831h-297v31h328v-1893h-328v31z" />
<glyph unicode="^" horiz-adv-x="833" d="M123 782h35l254 484h10l254 -484h35l-287 547h-14z" />
<glyph unicode="_" horiz-adv-x="1167" d="M123 -182h921v-31h-921v31z" />
<glyph unicode="`" horiz-adv-x="532" d="M143 1378l27 27l219 -207l-27 -27z" />
<glyph unicode="a" d="M82 252q0 183 190 258q93 36 212.5 47.5t301.5 10.5q-1 195 -82.5 284.5t-234.5 89.5q-136 0 -225.5 -64.5t-89.5 -193.5h-21q0 169 97.5 275t261.5 106q173 0 249 -126t76 -372q0 -36 -2 -145t-2 -131q0 -98 25.5 -148.5t87.5 -50.5q55 0 83.5 39t28.5 102h17 q0 -61 -5 -104.5t-19 -82t-41.5 -58t-69.5 -19.5q-70 0 -102 64t-32 211v43h-12q-105 -318 -391 -318q-149 0 -225 81.5t-76 201.5zM111 274q0 -53 24.5 -91t67 -56.5t87 -26.5t95.5 -8q195 0 298 104t103 293v56q-107 0 -179 -2.5t-167.5 -16t-158.5 -39.5 q-79 -32 -124.5 -86.5t-45.5 -126.5z" />
<glyph unicode="b" horiz-adv-x="1165" d="M-133 1677v23l330 41v-1014h10q47 152 153.5 244t262.5 92q200 0 320 -150t120 -383q0 -156 -55.5 -284t-159.5 -203.5t-238 -75.5q-224 0 -344 219h-8l-61 -186h-25v1286q0 220 -66.5 305.5t-238.5 85.5zM197 514q0 -106 32 -188.5t89.5 -133t134 -76.5t168.5 -26 q193 0 304 108.5t111 315.5q0 108 -32 191t-89 133.5t-132 76t-165 25.5q-190 0 -305.5 -109t-115.5 -317z" />
<glyph unicode="c" d="M102 522q0 240 125.5 391.5t325.5 151.5q216 0 332 -188l8 2l53 145h21v-279h-21q-37 93 -136.5 148t-238.5 55q-127 0 -225.5 -46t-158.5 -144t-60 -236q0 -106 35.5 -189.5t97 -135t138.5 -78.5t165 -27q135 0 248 56.5t137 146.5h25q-30 -140 -133.5 -233t-268.5 -93 q-212 0 -340.5 155t-128.5 398z" />
<glyph unicode="d" horiz-adv-x="1271" d="M102 487q0 163 58.5 293.5t167 205.5t247.5 75q141 0 241 -78t145 -217h10v518q0 220 -66.5 305.5t-238.5 85.5v23l329 41v-1405q0 -54 5 -94t22 -83t46 -70t81 -44.5t123 -17.5v-25l-301 -31v318h-10q-47 -149 -153.5 -235.5t-260.5 -86.5q-202 0 -323.5 144t-121.5 378 zM129 516q0 -105 34.5 -188t94.5 -134.5t137.5 -78.5t167.5 -27q184 0 295 109t111 317q0 141 -54 238t-144 141.5t-210 44.5q-89 0 -166 -26t-137 -76t-94.5 -132.5t-34.5 -187.5z" />
<glyph unicode="e" horiz-adv-x="1103" d="M102 514q0 247 127 399t346 152q108 0 192 -39.5t134 -106.5t75 -149t25 -174l-16 -16h-852q-4 -40 -4 -68q0 -203 125 -311.5t342 -108.5q135 0 231.5 42.5t141.5 119.5h24q-32 -116 -147.5 -200.5t-280.5 -84.5q-147 0 -253.5 73t-158 194.5t-51.5 277.5zM135 604h838 q-14 152 -115 245t-283 93q-172 0 -292.5 -86t-147.5 -252z" />
<glyph unicode="f" horiz-adv-x="737" d="M31 932v92h276v229q1 83 6 146t21.5 131t44 111.5t76 71.5t114.5 28q115 0 173.5 -75.5t58.5 -197.5h-25q0 66 -56.5 108t-148.5 42q-58 0 -100 -18t-68.5 -51t-42.5 -85.5t-22 -113.5t-6 -144v-182h409v-92h-409v-596q3 -76 15 -128t40 -96t80.5 -65.5t130.5 -21.5v-25 h-510v25q63 0 106 20.5t66 63.5t33.5 93t13.5 124v606h-276z" />
<glyph unicode="g" horiz-adv-x="1165" d="M90 -256q0 129 70.5 218.5t173.5 121.5q-37 54 -37 129q0 85 57 139q-83 48 -129.5 131.5t-46.5 190.5q0 169 107.5 280t289.5 111q190 0 302 -125q10 225 135 225q48 0 79 -33t42.5 -78t11.5 -100h-23q0 30 -29.5 59t-76.5 29q-50 0 -83 -37t-36 -92q74 -100 74 -239 q0 -169 -110 -272t-288 -103q-109 0 -196 41q-53 -44 -53 -111q0 -151 268 -151h137q88 0 158 -28t113.5 -76.5t66.5 -109.5t23 -130q0 -118 -66.5 -205t-176.5 -130.5t-249 -43.5q-100 0 -189.5 24t-161.5 70t-114.5 122.5t-42.5 172.5zM117 -248q0 -274 491 -274 q223 0 339 60t116 196q0 66 -27 114t-71.5 73t-91.5 36.5t-97 11.5h-164q-184 0 -262 92q-101 -26 -167 -114t-66 -195zM205 672q0 -131 97 -193.5t271 -62.5q176 0 273.5 62.5t97.5 193.5t-98.5 200.5t-272.5 69.5q-171 0 -269.5 -69t-98.5 -201z" />
<glyph unicode="h" horiz-adv-x="1263" d="M-31 1597v23l330 41v-965h6q28 104 80.5 185t138 132.5t189.5 51.5q72 0 126.5 -25t89.5 -69.5t56.5 -112t30.5 -144t10 -175.5q0 -72 1 -119.5t3 -100.5t6.5 -85t12.5 -67t19.5 -55t27 -39t37.5 -28t48.5 -14.5t61.5 -5.5v-25h-461v25q56 0 94.5 15.5t63 43.5t38 78 t18.5 109t5 147q0 116 -8 198t-28 147t-54 103.5t-85.5 58t-123.5 19.5q-81 0 -148.5 -23t-122.5 -70.5t-89.5 -127.5t-42.5 -186q0 -81 1 -132.5t4 -108.5t9.5 -90t17.5 -68t26.5 -53t38 -33.5t52 -21t68.5 -5.5v-25h-461v25q35 0 62.5 5.5t49.5 14.5t38 28.5t27.5 38.5 t19 54.5t12 67.5t7 85.5t3 100t0.5 119.5v667q0 220 -66.5 305.5t-238.5 85.5z" />
<glyph unicode="i" horiz-adv-x="598" d="M31 985v23l329 41v-510q0 -81 1 -133t4.5 -109t9.5 -90.5t17 -68t27 -53t38.5 -34t52 -21t68.5 -5.5v-25h-461v25q35 0 62.5 5.5t49.5 14.5t38 28.5t27.5 38.5t19 54.5t12 67.5t7 85.5t3 100t0.5 119.5v55q0 220 -66.5 305.5t-238.5 85.5zM207 1311q0 47 29.5 76.5 t76.5 29.5q48 0 78.5 -29.5t30.5 -76.5t-31 -78t-78 -31t-76.5 30.5t-29.5 78.5z" />
<glyph unicode="j" horiz-adv-x="518" d="M-164 -371h25q0 -66 56.5 -107.5t148.5 -41.5q72 0 119.5 26.5t73.5 82t36 127t10 175.5v703q0 220 -66.5 305.5t-238.5 85.5v23l330 41v-1158q0 -65 -1.5 -113t-7.5 -107t-17 -101t-30.5 -84.5t-46.5 -69t-67.5 -43t-91.5 -16.5q-115 0 -173.5 75t-58.5 197zM180 1311 q0 47 30 76.5t77 29.5t77.5 -29.5t30.5 -76.5t-30.5 -78t-77.5 -31t-77 31t-30 78z" />
<glyph unicode="k" horiz-adv-x="1282" d="M-31 1679v23l330 41v-1178h211l211 219q55 58 76.5 91t21.5 57q0 22 -14 36.5t-41 20.5t-50.5 8t-58.5 2v25h533v-25q-122 0 -240.5 -69t-253.5 -211l-155 -164v-4l235 -250q131 -137 250 -206.5t238 -69.5v-25h-533v25q35 0 58 2t50.5 8t41.5 20.5t14 36.5 q0 24 -24.5 61.5t-96.5 114.5l-262 273h-211v-2q0 -72 0.5 -119.5t3 -100.5t7 -85t12.5 -67t19.5 -55t27 -39t37.5 -28t48.5 -14.5t61.5 -5.5v-25h-461v25q35 0 62.5 5.5t49.5 14.5t38 28.5t27.5 38.5t19 54.5t12 67.5t7 85.5t3 100t0.5 119.5v749q0 220 -66.5 305.5 t-238.5 85.5z" />
<glyph unicode="l" horiz-adv-x="536" d="M-31 1677v23l330 41v-1202q0 -72 0.5 -119.5t3 -100.5t7 -85t12.5 -67t19.5 -55t27 -39t37.5 -28t48.5 -14.5t61.5 -5.5v-25h-461v25q35 0 62.5 5.5t49.5 14.5t38 28.5t27.5 38.5t19 54.5t12 67.5t7 85.5t3 100t0.5 119.5v747q0 220 -66.5 305.5t-238.5 85.5z" />
<glyph unicode="m" horiz-adv-x="1904" d="M31 983v23l301 41l20 -295h10q52 147 143.5 230t223.5 83q244 0 275 -313h12q50 144 140 228.5t226 84.5q60 0 106.5 -17.5t77 -52t51 -78.5t31.5 -106.5t15 -124.5t4 -143v-4q0 -72 0.5 -119.5t3 -100.5t7 -85t12.5 -67t19.5 -55t27 -39t37.5 -28t48.5 -14.5t61.5 -5.5 v-25h-461v25q131 0 175 85t44 306q0 294 -63 411t-221 117q-51 0 -96 -10t-92 -37.5t-80.5 -71t-54.5 -116t-21 -166.5v-4q0 -72 1 -119.5t3 -100.5t6.5 -85t12.5 -67t19.5 -55t27 -39t37.5 -28t48.5 -14.5t61.5 -5.5v-25h-461v25q131 0 175 85t44 306q0 294 -63 411 t-221 117q-51 0 -96.5 -10t-92 -37.5t-80 -71t-55 -116t-21.5 -166.5v-4q0 -81 1 -133t4.5 -109t9.5 -90.5t17 -68t27 -53t38.5 -34t52 -21t68.5 -5.5v-25h-461v25q35 0 62.5 5.5t49.5 14.5t38 28.5t27.5 38.5t19 54.5t12 67.5t7 85.5t3 100t0.5 119.5v86q-11 181 -82 269.5 t-223 88.5z" />
<glyph unicode="n" horiz-adv-x="1327" d="M31 987v23l301 41l24 -355h13q43 162 148 265.5t259 103.5q90 0 152 -37t96.5 -109.5t49.5 -164t16 -215.5q0 -72 1 -119.5t3 -100.5t6.5 -85t12.5 -67t19.5 -55t27 -39t37.5 -28t48.5 -14.5t61.5 -5.5v-25h-461v25q133 0 176 86.5t43 308.5q0 115 -8 196.5t-28 146.5 t-54 103.5t-84.5 58t-122.5 19.5q-62 0 -117 -13t-108.5 -46t-92.5 -83t-63.5 -129.5t-26.5 -180.5q1 -96 3.5 -156t10.5 -118.5t22 -90.5t38.5 -57.5t59 -35t84.5 -9.5v-25h-461v25q35 0 62.5 5.5t49.5 14.5t38 28.5t27.5 38.5t19 54.5t12 67.5t7 85.5t3 100t0.5 119.5v90 q-11 181 -82 269.5t-223 88.5z" />
<glyph unicode="o" horiz-adv-x="1167" d="M102 520q0 240 134.5 392.5t347.5 152.5t347 -152.5t134 -392.5q0 -158 -60.5 -283.5t-170.5 -196.5t-250 -71q-213 0 -347.5 155.5t-134.5 395.5zM129 520q0 -210 123.5 -319t331.5 -109t331 109t123 319t-122.5 316t-331.5 106t-332 -106t-123 -316z" />
<glyph unicode="p" horiz-adv-x="1288" d="M-10 983v23l329 41v-302h11q47 147 153 232.5t258 85.5q202 0 323.5 -144t121.5 -378q0 -163 -58.5 -293.5t-167 -205.5t-247.5 -75q-141 0 -241.5 79t-145.5 220h-9v-387q0 -89 1.5 -137t7 -107.5t17.5 -88t33 -61t53.5 -45t78 -21.5t108.5 -9v-24h-542v24 q35 0 62.5 5.5t49.5 14.5t38 28.5t27.5 38.5t19 54.5t12 67.5t7 85.5t3 100t0.5 119.5v746q-10 174 -78 243.5t-225 69.5zM319 514q0 -141 54 -238t144 -141.5t210 -44.5q89 0 166 26t137 76t94.5 132.5t34.5 187.5t-34.5 188t-94.5 134.5t-137.5 78.5t-167.5 27 q-184 0 -295 -109t-111 -317z" />
<glyph unicode="q" horiz-adv-x="1185" d="M102 500q0 156 55.5 284t159.5 203.5t238 75.5q224 0 344 -219h10l60 180h24v-1212q0 -220 66.5 -306t238.5 -86v-22l-329 -41v948h-11q-45 -153 -151.5 -245.5t-263.5 -92.5q-133 0 -234 69.5t-154 190t-53 273.5zM129 516q0 -108 32 -191t89 -133.5t132 -76t165 -25.5 q191 0 306.5 109t115.5 317q0 106 -32 188.5t-89.5 133t-134 76.5t-168.5 26q-193 0 -304.5 -109t-111.5 -315z" />
<glyph unicode="r" horiz-adv-x="974" d="M31 987v23l301 41l20 -283h10q19 57 34.5 95t41 79.5t53.5 66t70 40.5t94 16q128 0 185 -82.5t57 -220.5h-25q-3 50 -24 86t-55.5 53.5t-69.5 25t-76 7.5q-48 0 -87 -9.5t-77.5 -37t-64.5 -72t-42 -120t-16 -175.5v-26q0 -89 1.5 -137t7 -107.5t17.5 -88t33 -61t53.5 -45 t78 -21.5t108.5 -9v-25h-542v25q35 0 62.5 5.5t49.5 14.5t38 28.5t27.5 38.5t19 54.5t12 67.5t7 85.5t3 100t0.5 119.5v90q-11 181 -82 269.5t-223 88.5z" />
<glyph unicode="s" horiz-adv-x="1034" d="M135 0v305h23q27 -114 124.5 -165.5t270.5 -51.5q340 0 340 193q0 43 -15.5 78t-49.5 58.5t-63 39.5t-81 28t-77 16.5t-76 12.5q-9 1 -13 2q-51 8 -82 13.5t-75 16t-70.5 22.5t-57 31.5t-47.5 43.5t-28 58.5t-11 76.5q0 131 93.5 209t232.5 78q212 0 313 -182h9l51 141 h22v-279h-22q-34 96 -128.5 143.5t-234.5 47.5q-59 0 -110 -8.5t-97 -27.5t-73 -55.5t-27 -86.5q0 -32 11.5 -58.5t28.5 -45.5t47.5 -35.5t57 -26.5t69 -20.5t71.5 -15.5t76 -13q148 -24 209 -47q174 -65 174 -228q0 -131 -99.5 -215t-263.5 -84q-138 0 -231.5 58 t-122.5 131h-8l-35 -158h-25z" />
<glyph unicode="t" horiz-adv-x="845" d="M-20 932v92q143 0 208.5 81.5t65.5 280.5h25v-362h411v-92h-411v-428q0 -83 6 -144t22 -113.5t42.5 -85.5t68.5 -51t100 -18q92 0 148.5 42t56.5 108h25q0 -122 -58.5 -197.5t-173.5 -75.5q-58 0 -102.5 20t-72.5 59.5t-46 84.5t-26.5 110t-11.5 120t-3 129v440h-274z " />
<glyph unicode="u" horiz-adv-x="1253" d="M-41 1004v22l330 41v-553q0 -213 74 -318.5t233 -105.5q60 0 115.5 15t107.5 49.5t90 87t61 133t23 180.5v57q0 220 -79 306t-283 86v22l387 41v-733q0 -54 5 -94t21.5 -83t45.5 -70t81 -44.5t123 -17.5v-25l-301 -31v369h-8q-43 -162 -148 -265.5t-259 -103.5 q-91 0 -154 38.5t-97 114t-48.5 169.5t-14.5 223v98q0 220 -66.5 306t-238.5 86z" />
<glyph unicode="v" horiz-adv-x="1185" d="M20 999v25h488v-25q-205 0 -205 -145q0 -39 19 -104l202 -539h138l202 539q19 65 19 104q0 145 -205 145v25h487v-25q-102 -6 -159 -62t-107 -171l-289 -766h-37l-288 774q-24 54 -46.5 90t-53.5 67.5t-71.5 48t-93.5 19.5z" />
<glyph unicode="w" horiz-adv-x="1802" d="M20 999v25h488v-25q-205 0 -205 -147q0 -45 16 -94l201 -547h129l197 541q12 44 12 82q0 76 -51.5 120.5t-159.5 44.5v25h500v-25q-213 0 -213 -159q0 -45 16 -101l201 -528h133l193 528q22 62 22 113q0 147 -205 147v25h488v-25q-56 -3 -98 -20.5t-74 -53.5t-53.5 -74 t-47.5 -99l-274 -752h-35l-305 813l-293 -813h-35l-274 752q-26 61 -47.5 99t-53.5 74t-74 53.5t-98 20.5z" />
<glyph unicode="x" horiz-adv-x="1294" d="M20 0v25q172 9 291 131l316 381l-269 319q-122 134 -301 143v25h512v-25q-74 0 -124 -26t-50 -78q0 -36 21 -64l227 -272l229 272q21 31 21 64q0 52 -50 78t-124 26v25h512v-25q-178 -8 -305 -145l-264 -315l311 -371q122 -134 301 -143v-25h-512v25q74 0 124 26t50 78 q0 36 -21 64l-270 323l-262 -317q-25 -32 -25 -70q0 -52 50 -78t124 -26v-25h-512z" />
<glyph unicode="y" horiz-adv-x="1206" d="M10 -346h25q0 -62 30.5 -104t70.5 -57t85 -15q111 0 191 113t186 395l-4 14l-289 774q-50 111 -106.5 165t-157.5 60v25h487v-25q-204 0 -204 -145q0 -42 18 -104l203 -539h137l203 539q18 62 18 104q0 145 -205 145v25h488v-25q-102 -6 -159 -62t-107 -171l-289 -766 q-122 -326 -161 -412q-74 -159 -149 -206q-44 -27 -100 -27q-102 0 -156.5 81t-54.5 218z" />
<glyph unicode="z" horiz-adv-x="1034" d="M102 0v66l801 892h-397q-45 0 -80 -2.5t-78.5 -9.5t-75 -22.5t-60 -39t-43.5 -62.5t-15 -89h-21v291h803v-66l-801 -892h455q45 0 80 2.5t78.5 9.5t75 22.5t60 39t43.5 62.5t15 89h21v-291h-861z" />
<glyph unicode="{" horiz-adv-x="706" d="M143 555v33q96 0 156.5 70.5t60.5 205.5q0 74 -28.5 237.5t-28.5 227.5q0 94 42 140.5t136 46.5h82v-31h-90q-73 0 -106 -38t-33 -120q0 -61 28.5 -223t28.5 -242q0 -123 -45.5 -196.5t-130.5 -94.5q85 -21 130.5 -94t45.5 -196q0 -80 -28.5 -242t-28.5 -223 q0 -82 33 -120t106 -38h90v-31h-82q-94 0 -136 46.5t-42 140.5q0 64 28.5 227.5t28.5 237.5q0 135 -60.5 205.5t-156.5 70.5z" />
<glyph unicode="|" horiz-adv-x="440" d="M205 -291v1675h31v-1675h-31z" />
<glyph unicode="}" horiz-adv-x="706" d="M143 -342h90q73 0 106.5 38t33.5 120q0 61 -29 223t-29 242q0 122 46 195.5t131 94.5q-85 21 -131 94.5t-46 196.5q0 80 29 242t29 223q0 82 -33.5 120t-106.5 38h-90v31h82q94 0 136 -46.5t42 -140.5q0 -64 -28.5 -227.5t-28.5 -237.5q0 -135 60.5 -205.5t156.5 -70.5 v-33q-96 0 -156.5 -70.5t-60.5 -205.5q0 -74 28.5 -237.5t28.5 -227.5q0 -94 -42 -140.5t-136 -46.5h-82v31z" />
<glyph unicode="~" horiz-adv-x="1116" d="M123 590q0 99 59 163t154 64q52 0 99.5 -21.5t85.5 -52.5t76 -62.5t86.5 -53t100.5 -21.5q86 0 131.5 53t45.5 138h32q0 -58 -19 -107t-68 -85t-122 -36q-48 0 -92 15.5t-75.5 39t-66 51t-64 51t-68.5 39t-80 15.5q-81 0 -131.5 -53.5t-50.5 -136.5h-33z" />
<glyph unicode="&#xa1;" horiz-adv-x="528" d="M143 -360q45 60 75 271t30 486v262h37v-262q0 -274 29 -485.5t71 -271.5v-119h-242v119zM147 948q0 52 33 85.5t84 33.5t85 -33.5t34 -85.5q0 -51 -34 -84t-85 -33t-84 33t-33 84z" />
<glyph unicode="&#xa2;" d="M102 700q0 232 122 386.5t317 164.5v138h28v-138q89 -1 161 -27.5t120 -73t78 -102.5t45 -122h-25q-24 90 -136.5 146t-246.5 56q-88 0 -165.5 -27t-139 -78t-97.5 -134.5t-36 -188.5t36 -188.5t97.5 -134.5t139 -78t165.5 -27q133 0 246 56.5t137 146.5h25 q-15 -66 -45 -122t-78 -102.5t-120 -73t-161 -27.5v-150h-28v150q-195 10 -317 164t-122 386z" />
<glyph unicode="&#xa3;" horiz-adv-x="1101" d="M92 688v31h262q-10 18 -40 71.5t-43 81.5t-32.5 76t-27.5 96t-8 101q0 181 102.5 296t296.5 115q75 0 135 -19t101 -51t71.5 -79.5t49 -99t30.5 -115.5h-28q-81 242 -363 242q-158 0 -257 -77.5t-99 -234.5q0 -58 16.5 -117.5t32 -93.5t53 -101.5t49.5 -90.5h518v-31 h-503q55 -124 55 -239q0 -223 -164 -357h711v-92h-889v51q143 33 224 143.5t81 260.5q0 116 -57 233h-277z" />
<glyph unicode="&#xa4;" horiz-adv-x="1179" d="M102 1204l19 19l125 -125q131 131 340 131t344 -135l129 129l18 -19l-129 -131q115 -131 115 -325q0 -196 -115 -330l127 -127l-18 -19l-125 127q-133 -139 -346 -139q-210 0 -342 135l-121 -123l-19 19l121 123q-116 135 -116 334t118 329zM135 745q0 -187 125.5 -306.5 t325.5 -119.5t326 119.5t126 306.5t-126 305.5t-326 118.5t-325.5 -118.5t-125.5 -305.5z" />
<glyph unicode="&#xa5;" horiz-adv-x="1431" d="M20 1446v29h584v-29q-88 0 -130 -40t-42 -101q0 -57 53 -136l230 -303l223 291q61 86 61 148q0 61 -42 101t-130 40v29h584v-29q-97 0 -201 -67.5t-196 -172.5l-269 -348h410v-31h-426v-176h426v-30h-426v-123q0 -143 12.5 -230.5t45 -142.5t84 -75.5t135.5 -20.5v-29 h-584v29q113 0 171.5 41t82.5 139t24 289v123h-426v30h426v176h-426v31h410l-272 354q-90 103 -192.5 168.5t-199.5 65.5z" />
<glyph unicode="&#xa8;" horiz-adv-x="780" d="M143 1300q0 43 27 70t70 27t69.5 -27t26.5 -70t-26.5 -70.5t-69.5 -27.5t-70 27.5t-27 70.5zM444 1300q0 43 27 70t70 27t69.5 -27t26.5 -70t-26.5 -70.5t-69.5 -27.5t-70 27.5t-27 70.5z" />
<glyph unicode="&#xa9;" horiz-adv-x="1732" d="M123 766q0 228 92 408.5t261.5 282.5t387.5 102q164 0 303.5 -59.5t236.5 -164.5t151.5 -252t54.5 -317t-54.5 -317.5t-151.5 -253.5t-236.5 -167t-303.5 -61t-303 61t-234.5 167t-149.5 253.5t-54 317.5zM147 766q0 -148 54 -275.5t149 -217t228 -140.5t286 -51t286 51 t228 140.5t149 217t54 275.5q0 197 -92.5 351.5t-256 238.5t-368.5 84t-368.5 -84t-256 -238.5t-92.5 -351.5zM481 766q0 205 109.5 337t290.5 132q73 0 133 -23t100.5 -63t67 -88.5t39.5 -104.5h-21q-21 77 -118 125.5t-210 48.5q-75 0 -140.5 -23t-117.5 -66.5t-82 -114.5 t-30 -160q0 -118 52.5 -202.5t134.5 -123.5t183 -39q113 0 210 48.5t118 123.5h21q-18 -75 -57.5 -134.5t-113 -100.5t-169.5 -41q-181 0 -290.5 132t-109.5 337z" />
<glyph unicode="&#xab;" horiz-adv-x="1097" d="M143 582l392 -287v35l-347 254v10l347 254v35l-392 -287v-14zM563 582l391 -287v35l-346 254v10l346 254v35l-391 -287v-14z" />
<glyph unicode="&#xad;" horiz-adv-x="800" d="M143 561v31h514v-31h-514z" />
<glyph unicode="&#xae;" horiz-adv-x="1732" d="M123 766q0 228 92 408.5t261.5 282.5t387.5 102q164 0 303.5 -59.5t236.5 -164.5t151.5 -252t54.5 -317t-54.5 -317.5t-151.5 -253.5t-236.5 -167t-303.5 -61t-303 61t-234.5 167t-149.5 253.5t-54 317.5zM147 766q0 -148 54 -275.5t149 -217t228 -140.5t286 -51t286 51 t228 140.5t149 217t54 275.5q0 197 -92.5 351.5t-256 238.5t-368.5 84t-368.5 -84t-256 -238.5t-92.5 -351.5zM518 317v25q38 0 66 11t43 28t23.5 43.5t11 50t2.5 55.5v449q0 199 -146 199v24h342q151 0 230 -56.5t79 -168.5q0 -119 -89 -169t-249 -50h-14v-8 q52 -22 87 -63.5t79 -135.5q38 -80 63 -107q42 -47 107 -47q53 0 87 28.5t38 80.5h25q0 -88 -46 -143.5t-116 -55.5q-22 0 -42 7t-34.5 16t-28 26.5t-21.5 29.5t-17.5 34.5t-13 32t-10 31.5t-7.5 24q-77 244 -281 244v-222q0 -35 2 -56t13 -49t31.5 -44t60 -27.5t96.5 -11.5 v-25h-371zM686 784h154q145 0 223 48t78 131q0 159 -303 159h-152v-338z" />
<glyph unicode="&#xaf;" horiz-adv-x="724" d="M143 1262v38h439v-38h-439z" />
<glyph unicode="&#xb0;" horiz-adv-x="677" d="M123 1165q0 96 62 162t155 66q94 0 154.5 -65.5t60.5 -162.5q0 -98 -60.5 -162.5t-154.5 -64.5q-93 0 -155 65t-62 162zM152 1165q0 -74 52 -119t136 -45t136 45t52 119q0 73 -52 117.5t-136 44.5t-136 -44.5t-52 -117.5z" />
<glyph unicode="&#xb1;" horiz-adv-x="1269" d="M123 160v30h1024v-30h-1024zM123 662v30h495v309h31v-309h498v-30h-498v-326h-31v326h-495z" />
<glyph unicode="&#xb4;" horiz-adv-x="532" d="M143 1202l219 207l27 -27l-219 -206z" />
<glyph unicode="&#xb6;" horiz-adv-x="1024" d="M123 1059q0 81 26 148t70 112t105 76t129 45t143 14h336v-111h-96v-1562h-31v1562h-176v-1562h-31v883q-96 1 -179.5 24t-150.5 69t-106 123.5t-39 178.5z" />
<glyph unicode="&#xb7;" horiz-adv-x="522" d="M143 563q0 51 34 84t85 33t84 -33t33 -84q0 -52 -33 -85.5t-84 -33.5t-85 33.5t-34 85.5z" />
<glyph unicode="&#xb8;" horiz-adv-x="593" d="M143 -348q66 -14 126.5 -14t103.5 23.5t43 64.5q0 44 -48 67.5t-107.5 22.5t-113.5 -9l125 211h37l-104 -172q39 14 82.5 11t79.5 -16.5t60 -44.5t24 -72q0 -88 -96 -117.5t-210 18.5z" />
<glyph unicode="&#xbb;" horiz-adv-x="1097" d="M143 295l392 287v14l-392 287v-35l346 -254v-10l-346 -254v-35zM563 295l391 287v14l-391 287v-35l346 -254v-10l-346 -254v-35z" />
<glyph unicode="&#xbc;" horiz-adv-x="1527" d="M90 1411v27q178 0 223 118h27v-655q0 -169 39 -226t153 -57v-26h-417v26q116 0 155 57t39 226v340q0 40 -3 65.5t-13 46t-24 31t-41 17t-57.5 8.5t-80.5 2zM352 18l903 1498l27 -21l-903 -1497zM874 289v76l377 555h31v-555h176v-76h-176q1 -153 35.5 -207.5t128.5 -54.5 v-27h-361v27q95 0 130 54.5t36 207.5h-377zM915 365h336v391h-71z" />
<glyph unicode="&#xbd;" horiz-adv-x="1579" d="M55 1411v27q179 0 224 118h26v-655q0 -168 39.5 -225.5t153.5 -57.5v-26h-418v26q116 0 155 57t39 226v340q0 40 -3 65.5t-13 46t-24 31t-41 17t-57.5 8.5t-80.5 2zM303 18l903 1498l27 -21l-903 -1497zM950 0v49l228 227q112 112 167.5 194t55.5 169q0 89 -57 142 t-148 53q-82 0 -135 -46t-72 -133h-26q18 118 81.5 187t167.5 69q109 0 170.5 -73t61.5 -179q0 -39 -8 -75.5t-27.5 -73t-36 -63.5t-51.5 -66.5t-55.5 -61t-63.5 -65.5l-203 -205h224q57 0 90 2.5t63.5 11t44 26.5t21.5 46t8 72h27v-207h-527z" />
<glyph unicode="&#xbe;" horiz-adv-x="1552" d="M98 795l17 6q18 -58 86 -91.5t159 -33.5q112 0 173 50.5t61 135.5q0 91 -70.5 131.5t-187.5 40.5q-30 0 -84 -4v92q299 0 299 166q0 74 -52.5 112t-131.5 38q-83 0 -147.5 -41.5t-82.5 -126.5h-16q9 66 36 122t83 96t131 40q103 0 157 -66.5t54 -163.5q0 -178 -191 -217 q232 -44 232 -229q0 -108 -69.5 -188t-191.5 -80q-107 0 -173.5 62.5t-90.5 148.5zM377 18l903 1498l27 -21l-904 -1497zM903 289v76l377 555h31v-555h176v-76h-176q1 -153 35.5 -207.5t128.5 -54.5v-27h-361v27q95 0 130 54.5t36 207.5h-377zM944 365h336v391h-72z" />
<glyph unicode="&#xbf;" horiz-adv-x="1042" d="M102 -92q0 84 21 161.5t61 141.5t107 102.5t151 38.5q103 0 150 -47h6v369h33v-408q-242 0 -370 -99.5t-128 -256.5q0 -137 97 -215t262 -78q155 0 261.5 69t157.5 191h29q-35 -186 -142.5 -290.5t-289.5 -104.5q-102 0 -181 33t-127.5 91.5t-73 135t-24.5 166.5z M502 950q0 52 32.5 85.5t83.5 33.5t85 -33.5t34 -85.5q0 -51 -34 -83.5t-85 -32.5t-83.5 32.5t-32.5 83.5z" />
<glyph unicode="&#xc0;" horiz-adv-x="1695" d="M20 0v29q55 0 100.5 19t81.5 51.5t72.5 91.5t66 122.5t69.5 161.5l219 543q99 243 73.5 356t-188.5 113v29h356l439 -1088q44 -109 77 -175.5t76.5 -121.5t94.5 -78.5t118 -23.5v-29h-542v29q109 0 152.5 46.5t43.5 127.5q0 52 -18.5 114t-75.5 205l-27 68h-721l-26 -68 q-57 -143 -75.5 -205t-18.5 -114q0 -81 43.5 -127.5t152.5 -46.5v-29h-543zM483 1743l23 31l252 -166l-23 -31zM500 616h698l-301 746h-96z" />
<glyph unicode="&#xc1;" horiz-adv-x="1695" d="M20 0v29q55 0 100.5 19t81.5 51.5t72.5 91.5t66 122.5t69.5 161.5l219 543q99 243 73.5 356t-188.5 113v29h356l439 -1088q44 -109 77 -175.5t76.5 -121.5t94.5 -78.5t118 -23.5v-29h-542v29q109 0 152.5 46.5t43.5 127.5q0 52 -18.5 114t-75.5 205l-27 68h-721l-26 -68 q-57 -143 -75.5 -205t-18.5 -114q0 -81 43.5 -127.5t152.5 -46.5v-29h-543zM500 616h698l-301 746h-96zM700 1608l252 166l23 -31l-252 -166z" />
<glyph unicode="&#xc2;" horiz-adv-x="1695" d="M20 0v29q55 0 100.5 19t81.5 51.5t72.5 91.5t66 122.5t69.5 161.5l219 543q99 243 73.5 356t-188.5 113v29h356l439 -1088q44 -109 77 -175.5t76.5 -121.5t94.5 -78.5t118 -23.5v-29h-542v29q109 0 152.5 46.5t43.5 127.5q0 52 -18.5 114t-75.5 205l-27 68h-721l-26 -68 q-57 -143 -75.5 -205t-18.5 -114q0 -81 43.5 -127.5t152.5 -46.5v-29h-543zM500 616h698l-301 746h-96zM543 1610l217 157l219 -157l-21 -23l-198 117l-197 -117z" />
<glyph unicode="&#xc3;" horiz-adv-x="1695" d="M20 0v29q55 0 100.5 19t81.5 51.5t72.5 91.5t66 122.5t69.5 161.5l219 543q99 243 73.5 356t-188.5 113v29h356l439 -1088q44 -109 77 -175.5t76.5 -121.5t94.5 -78.5t118 -23.5v-29h-542v29q109 0 152.5 46.5t43.5 127.5q0 52 -18.5 114t-75.5 205l-27 68h-721l-26 -68 q-57 -143 -75.5 -205t-18.5 -114q0 -81 43.5 -127.5t152.5 -46.5v-29h-543zM500 616h698l-301 746h-96zM510 1642q9 53 47 84t96 31q44 0 79 -20.5t68 -41t74 -20.5q83 0 105 78l33 -6q-7 -44 -43 -78.5t-99 -34.5q-45 0 -80.5 20.5t-68.5 41t-70 20.5q-42 0 -71.5 -21 t-36.5 -57z" />
<glyph unicode="&#xc4;" horiz-adv-x="1695" d="M20 0v29q55 0 100.5 19t81.5 51.5t72.5 91.5t66 122.5t69.5 161.5l219 543q99 243 73.5 356t-188.5 113v29h356l439 -1088q44 -109 77 -175.5t76.5 -121.5t94.5 -78.5t118 -23.5v-29h-542v29q109 0 152.5 46.5t43.5 127.5q0 52 -18.5 114t-75.5 205l-27 68h-721l-26 -68 q-57 -143 -75.5 -205t-18.5 -114q0 -81 43.5 -127.5t152.5 -46.5v-29h-543zM500 616h698l-301 746h-96zM510 1698q0 43 26.5 69.5t69.5 26.5t69.5 -26.5t26.5 -69.5t-27 -71t-69 -28t-69 28t-27 71zM819 1698q0 43 26.5 69.5t69.5 26.5t70 -26.5t27 -69.5t-27 -71t-70 -28 q-42 0 -69 28t-27 71z" />
<glyph unicode="&#xc5;" horiz-adv-x="1695" d="M20 0v29q55 0 100.5 19t81.5 51.5t72.5 91.5t66 122.5t69.5 161.5l219 543q99 243 73.5 356t-188.5 113v29h356l439 -1088q44 -109 77 -175.5t76.5 -121.5t94.5 -78.5t118 -23.5v-29h-542v29q109 0 152.5 46.5t43.5 127.5q0 52 -18.5 114t-75.5 205l-27 68h-721l-26 -68 q-57 -143 -75.5 -205t-18.5 -114q0 -81 43.5 -127.5t152.5 -46.5v-29h-543zM500 616h698l-301 746h-96zM618 1702q0 63 40.5 104t103.5 41q64 0 103.5 -40.5t39.5 -104.5t-39.5 -105t-103.5 -41q-63 0 -103.5 41.5t-40.5 104.5zM657 1702q0 -44 30.5 -73.5t74.5 -29.5 q45 0 75.5 29.5t30.5 73.5t-30.5 73t-75.5 29t-75 -29t-30 -73z" />
<glyph unicode="&#xc6;" horiz-adv-x="2050" d="M20 0v29q65 0 114.5 18.5t96.5 66t84 102.5t95 155l399 692q108 215 84.5 319.5t-158.5 104.5v29h1161v-353h-28q0 54 -6.5 93t-18 69t-35.5 49t-50.5 31.5t-71.5 18.5t-90 8t-115 2h-373v-662h414l82 217h28v-463h-28l-82 219h-414v-663h434q61 0 102 1.5t82.5 6t68 12 t51.5 21.5t39 32.5t25 46t15 62t4 80.5h29v-344h-1161v29q54 0 97 12.5t72 32.5t50 51.5t33 63t19 74.5t9 79t2 82v166h-514l-174 -301q-37 -70 -37 -115q0 -64 50.5 -104.5t158.5 -40.5v-29h-543zM580 616h499v818h-26l-240 -416l-2 -2z" />
<glyph unicode="&#xc7;" horiz-adv-x="1519" d="M123 776q0 225 84.5 403t235 277.5t339.5 99.5q300 0 475 -258h13l73 218h29v-410h-29q-156 321 -546 321q-139 0 -254 -39t-203 -116.5t-137 -204.5t-49 -293q0 -169 51 -299.5t142 -211t211 -121t265 -40.5q227 0 365 93t192 245h27q-18 -64 -50 -126.5t-83.5 -126 t-115.5 -111t-152.5 -77.5t-186.5 -30q-30 0 -76 4l-75 -127q39 14 82 11t79.5 -16.5t60 -44.5t23.5 -72q0 -88 -95.5 -117.5t-209.5 18.5l-2 27q65 -14 125.5 -14t104 23.5t43.5 64.5q0 44 -49 67.5t-109.5 22.5t-114.5 -9l101 170q-125 21 -232 88t-185 169.5 t-122.5 242.5t-44.5 299z" />
<glyph unicode="&#xc8;" horiz-adv-x="1345" d="M92 0v29q54 0 97 12.5t72 32.5t50.5 51t33.5 63t19 75t9 79t2 82v668q0 46 -2 82t-9 79t-19 75t-33.5 63t-50.5 51t-72 32.5t-97 12.5v29h1100v-353h-29q0 54 -6.5 93t-18 69t-35.5 49t-50.5 31.5t-71.5 18.5t-90 8t-115 2h-373v-662h414l82 217h29v-463h-29l-82 219 h-414v-663h435q61 0 102 1.5t82.5 6t68 12t51.5 21.5t39 32.5t25 46t15 62t4 80.5h28v-344h-1161zM436 1743l23 31l252 -166l-23 -31z" />
<glyph unicode="&#xc9;" horiz-adv-x="1345" d="M92 0v29q54 0 97 12.5t72 32.5t50.5 51t33.5 63t19 75t9 79t2 82v668q0 46 -2 82t-9 79t-19 75t-33.5 63t-50.5 51t-72 32.5t-97 12.5v29h1100v-353h-29q0 54 -6.5 93t-18 69t-35.5 49t-50.5 31.5t-71.5 18.5t-90 8t-115 2h-373v-662h414l82 217h29v-463h-29l-82 219 h-414v-663h435q61 0 102 1.5t82.5 6t68 12t51.5 21.5t39 32.5t25 46t15 62t4 80.5h28v-344h-1161zM653 1608l252 166l23 -31l-252 -166z" />
<glyph unicode="&#xca;" horiz-adv-x="1345" d="M92 0v29q54 0 97 12.5t72 32.5t50.5 51t33.5 63t19 75t9 79t2 82v668q0 46 -2 82t-9 79t-19 75t-33.5 63t-50.5 51t-72 32.5t-97 12.5v29h1100v-353h-29q0 54 -6.5 93t-18 69t-35.5 49t-50.5 31.5t-71.5 18.5t-90 8t-115 2h-373v-662h414l82 217h29v-463h-29l-82 219 h-414v-663h435q61 0 102 1.5t82.5 6t68 12t51.5 21.5t39 32.5t25 46t15 62t4 80.5h28v-344h-1161zM496 1610l217 157l219 -157l-21 -23l-198 117l-197 -117z" />
<glyph unicode="&#xcb;" horiz-adv-x="1345" d="M92 0v29q54 0 97 12.5t72 32.5t50.5 51t33.5 63t19 75t9 79t2 82v668q0 46 -2 82t-9 79t-19 75t-33.5 63t-50.5 51t-72 32.5t-97 12.5v29h1100v-353h-29q0 54 -6.5 93t-18 69t-35.5 49t-50.5 31.5t-71.5 18.5t-90 8t-115 2h-373v-662h414l82 217h29v-463h-29l-82 219 h-414v-663h435q61 0 102 1.5t82.5 6t68 12t51.5 21.5t39 32.5t25 46t15 62t4 80.5h28v-344h-1161zM463 1698q0 43 26.5 69.5t69.5 26.5t69.5 -26.5t26.5 -69.5t-27 -71t-69 -28t-69 28t-27 71zM772 1698q0 43 26.5 69.5t69.5 26.5t70 -26.5t27 -69.5t-27 -71t-70 -28 q-42 0 -69 28t-27 71z" />
<glyph unicode="&#xcc;" horiz-adv-x="768" d="M92 0v29q85 0 137 20.5t85 75.5t45 142.5t12 230.5v520q0 143 -12 230.5t-45 142.5t-85 75.5t-137 20.5v29h584v-29q-84 0 -135.5 -20.5t-84 -75.5t-45 -142.5t-12.5 -230.5v-520q0 -143 12.5 -230.5t45 -142.5t84 -75.5t135.5 -20.5v-29h-584zM106 1743l23 31l252 -166 l-23 -31z" />
<glyph unicode="&#xcd;" horiz-adv-x="768" d="M92 0v29q85 0 137 20.5t85 75.5t45 142.5t12 230.5v520q0 143 -12 230.5t-45 142.5t-85 75.5t-137 20.5v29h584v-29q-84 0 -135.5 -20.5t-84 -75.5t-45 -142.5t-12.5 -230.5v-520q0 -143 12.5 -230.5t45 -142.5t84 -75.5t135.5 -20.5v-29h-584zM324 1608l251 166l23 -31 l-252 -166z" />
<glyph unicode="&#xce;" horiz-adv-x="768" d="M92 0v29q85 0 137 20.5t85 75.5t45 142.5t12 230.5v520q0 143 -12 230.5t-45 142.5t-85 75.5t-137 20.5v29h584v-29q-84 0 -135.5 -20.5t-84 -75.5t-45 -142.5t-12.5 -230.5v-520q0 -143 12.5 -230.5t45 -142.5t84 -75.5t135.5 -20.5v-29h-584zM166 1610l217 157 l219 -157l-20 -23l-199 117l-197 -117z" />
<glyph unicode="&#xcf;" horiz-adv-x="768" d="M92 0v29q85 0 137 20.5t85 75.5t45 142.5t12 230.5v520q0 143 -12 230.5t-45 142.5t-85 75.5t-137 20.5v29h584v-29q-84 0 -135.5 -20.5t-84 -75.5t-45 -142.5t-12.5 -230.5v-520q0 -143 12.5 -230.5t45 -142.5t84 -75.5t135.5 -20.5v-29h-584zM133 1698q0 43 26.5 69.5 t69.5 26.5t70 -26.5t27 -69.5t-27 -71t-70 -28q-42 0 -69 28t-27 71zM442 1698q0 43 27 69.5t70 26.5t69.5 -26.5t26.5 -69.5t-27 -71t-69 -28q-43 0 -70 28t-27 71z" />
<glyph unicode="&#xd0;" horiz-adv-x="1632" d="M92 0v29q54 0 97 12.5t72 32.5t50.5 51t33.5 63t19 75t9 79t2 82v317h-279v31h279v320q0 46 -2 82t-9 79t-19 75t-33.5 63t-50.5 51t-72 32.5t-97 12.5v29h621q191 0 342.5 -47t260 -139.5t166.5 -237.5t58 -334t-58 -334t-166.5 -237.5t-260 -139.5t-342.5 -47h-621z M403 123h289q184 0 323 27.5t233 78t152.5 129t83.5 174.5t25 220q0 161 -43.5 278t-139 199.5t-253 123t-381.5 40.5h-289v-621h338v-31h-338v-618z" />
<glyph unicode="&#xd1;" horiz-adv-x="1861" d="M92 1487v29h324l966 -1342h101v844q0 75 -2 127t-9 102.5t-18 82.5t-30 61.5t-45 45.5t-63.5 28.5t-83.5 17t-108 4.5v29h666v-29q-85 0 -137 -20.5t-85 -75.5t-45 -142.5t-12 -230.5v-1018h-41l-978 1362h-89v-864q0 -75 2 -127t9 -102.5t18 -82.5t30 -61.5t45 -45.5 t63.5 -28.5t83.5 -17t108 -4.5v-29h-666v29q85 0 137 20.5t85 75.5t45 142.5t12 230.5v594q0 46 -2 82t-9 79t-19 75t-33.5 63t-50.5 51t-72 32.5t-97 12.5zM690 1642q9 53 47.5 84t96.5 31q44 0 79 -20.5t68 -41t74 -20.5q82 0 104 78l33 -6q-7 -44 -42.5 -78.5 t-98.5 -34.5q-45 0 -81 20.5t-69 41t-70 20.5q-42 0 -71.5 -21t-36.5 -57z" />
<glyph unicode="&#xd2;" horiz-adv-x="1648" d="M123 768q0 163 54 309t147 251t223.5 166.5t277.5 61.5q196 0 357 -104t252.5 -285t91.5 -399q0 -163 -54 -310.5t-146.5 -255t-223 -170.5t-277.5 -63q-196 0 -357.5 107t-253 290.5t-91.5 401.5zM154 768q0 -130 34.5 -239t95.5 -187t145.5 -132t184 -80t211.5 -26 q140 0 260.5 42t212.5 122.5t144.5 209t52.5 290.5q0 163 -52.5 289.5t-144.5 205t-212 118.5t-261 40t-261 -40t-212.5 -118.5t-145 -205t-52.5 -289.5zM547 1743l22 31l252 -166l-22 -31z" />
<glyph unicode="&#xd3;" horiz-adv-x="1648" d="M123 768q0 163 54 309t147 251t223.5 166.5t277.5 61.5q196 0 357 -104t252.5 -285t91.5 -399q0 -163 -54 -310.5t-146.5 -255t-223 -170.5t-277.5 -63q-196 0 -357.5 107t-253 290.5t-91.5 401.5zM154 768q0 -130 34.5 -239t95.5 -187t145.5 -132t184 -80t211.5 -26 q140 0 260.5 42t212.5 122.5t144.5 209t52.5 290.5q0 163 -52.5 289.5t-144.5 205t-212 118.5t-261 40t-261 -40t-212.5 -118.5t-145 -205t-52.5 -289.5zM764 1608l252 166l22 -31l-252 -166z" />
<glyph unicode="&#xd4;" horiz-adv-x="1648" d="M123 768q0 163 54 309t147 251t223.5 166.5t277.5 61.5q196 0 357 -104t252.5 -285t91.5 -399q0 -163 -54 -310.5t-146.5 -255t-223 -170.5t-277.5 -63q-196 0 -357.5 107t-253 290.5t-91.5 401.5zM154 768q0 -130 34.5 -239t95.5 -187t145.5 -132t184 -80t211.5 -26 q140 0 260.5 42t212.5 122.5t144.5 209t52.5 290.5q0 163 -52.5 289.5t-144.5 205t-212 118.5t-261 40t-261 -40t-212.5 -118.5t-145 -205t-52.5 -289.5zM606 1610l217 157l219 -157l-20 -23l-199 117l-196 -117z" />
<glyph unicode="&#xd5;" horiz-adv-x="1648" d="M123 768q0 163 54 309t147 251t223.5 166.5t277.5 61.5q196 0 357 -104t252.5 -285t91.5 -399q0 -163 -54 -310.5t-146.5 -255t-223 -170.5t-277.5 -63q-196 0 -357.5 107t-253 290.5t-91.5 401.5zM154 768q0 -130 34.5 -239t95.5 -187t145.5 -132t184 -80t211.5 -26 q140 0 260.5 42t212.5 122.5t144.5 209t52.5 290.5q0 163 -52.5 289.5t-144.5 205t-212 118.5t-261 40t-261 -40t-212.5 -118.5t-145 -205t-52.5 -289.5zM573 1642q9 53 47.5 84t96.5 31q44 0 79 -20.5t68 -41t74 -20.5q82 0 104 78l33 -6q-7 -44 -42.5 -78.5t-98.5 -34.5 q-45 0 -80.5 20.5t-68.5 41t-70 20.5q-42 0 -72 -21t-37 -57z" />
<glyph unicode="&#xd6;" horiz-adv-x="1648" d="M123 768q0 163 54 309t147 251t223.5 166.5t277.5 61.5q196 0 357 -104t252.5 -285t91.5 -399q0 -163 -54 -310.5t-146.5 -255t-223 -170.5t-277.5 -63q-196 0 -357.5 107t-253 290.5t-91.5 401.5zM154 768q0 -130 34.5 -239t95.5 -187t145.5 -132t184 -80t211.5 -26 q140 0 260.5 42t212.5 122.5t144.5 209t52.5 290.5q0 163 -52.5 289.5t-144.5 205t-212 118.5t-261 40t-261 -40t-212.5 -118.5t-145 -205t-52.5 -289.5zM573 1698q0 43 27 69.5t70 26.5t69.5 -26.5t26.5 -69.5t-27 -71t-69 -28q-43 0 -70 28t-27 71zM883 1698 q0 43 26.5 69.5t69.5 26.5t69.5 -26.5t26.5 -69.5t-27 -71t-69 -28t-69 28t-27 71z" />
<glyph unicode="&#xd7;" horiz-adv-x="997" d="M123 225l354 355l-348 348l21 20l350 -348l348 348l20 -20l-348 -348l354 -355l-22 -22l-352 354l-355 -354z" />
<glyph unicode="&#xd8;" horiz-adv-x="1648" d="M123 768q0 163 54 309t147 251t223.5 166.5t277.5 61.5q216 0 379 -120l105 174l28 -19l-104 -176q137 -107 215 -276.5t78 -370.5q0 -163 -54 -310.5t-146.5 -255t-223 -170.5t-277.5 -63q-209 0 -381 123l-102 -170l-29 19l103 174q-136 109 -214.5 281t-78.5 372z M154 768q0 -207 82 -352.5t227 -225.5l694 1164q-146 67 -332 67q-141 0 -261 -40t-212.5 -118.5t-145 -205t-52.5 -289.5zM494 174q146 -70 329 -70q112 0 212 26t184.5 80t145.5 132t95.5 187t34.5 239q0 206 -81.5 350t-225.5 221z" />
<glyph unicode="&#xd9;" horiz-adv-x="1671" d="M20 1487v29h584v-29q-84 0 -135 -20.5t-84 -75.5t-45 -142.5t-12 -230.5v-373q0 -541 510 -541q508 0 508 541v373q0 143 -12 230.5t-45 142.5t-85 75.5t-137 20.5v29h584v-29q-84 0 -135.5 -20.5t-84 -75.5t-45 -142.5t-12.5 -230.5v-387q-6 -662 -536 -662 q-533 0 -539 662v387q0 143 -12 230.5t-45 142.5t-85 75.5t-137 20.5zM563 1743l23 31l252 -166l-23 -31z" />
<glyph unicode="&#xda;" horiz-adv-x="1671" d="M20 1487v29h584v-29q-84 0 -135 -20.5t-84 -75.5t-45 -142.5t-12 -230.5v-373q0 -541 510 -541q508 0 508 541v373q0 143 -12 230.5t-45 142.5t-85 75.5t-137 20.5v29h584v-29q-84 0 -135.5 -20.5t-84 -75.5t-45 -142.5t-12.5 -230.5v-387q-6 -662 -536 -662 q-533 0 -539 662v387q0 143 -12 230.5t-45 142.5t-85 75.5t-137 20.5zM780 1608l252 166l23 -31l-252 -166z" />
<glyph unicode="&#xdb;" horiz-adv-x="1671" d="M20 1487v29h584v-29q-84 0 -135 -20.5t-84 -75.5t-45 -142.5t-12 -230.5v-373q0 -541 510 -541q508 0 508 541v373q0 143 -12 230.5t-45 142.5t-85 75.5t-137 20.5v29h584v-29q-84 0 -135.5 -20.5t-84 -75.5t-45 -142.5t-12.5 -230.5v-387q-6 -662 -536 -662 q-533 0 -539 662v387q0 143 -12 230.5t-45 142.5t-85 75.5t-137 20.5zM623 1610l217 157l219 -157l-21 -23l-198 117l-197 -117z" />
<glyph unicode="&#xdc;" horiz-adv-x="1671" d="M20 1487v29h584v-29q-84 0 -135 -20.5t-84 -75.5t-45 -142.5t-12 -230.5v-373q0 -541 510 -541q508 0 508 541v373q0 143 -12 230.5t-45 142.5t-85 75.5t-137 20.5v29h584v-29q-84 0 -135.5 -20.5t-84 -75.5t-45 -142.5t-12.5 -230.5v-387q-6 -662 -536 -662 q-533 0 -539 662v387q0 143 -12 230.5t-45 142.5t-85 75.5t-137 20.5zM590 1698q0 43 26.5 69.5t69.5 26.5t69.5 -26.5t26.5 -69.5t-27 -71t-69 -28t-69 28t-27 71zM899 1698q0 43 26.5 69.5t69.5 26.5t70 -26.5t27 -69.5t-27 -71t-70 -28q-42 0 -69 28t-27 71z" />
<glyph unicode="&#xdd;" horiz-adv-x="1599" d="M20 1487v29h584v-29q-88 0 -130 -40t-42 -101q0 -35 15 -67.5t47 -80.5l305 -420l321 441q47 73 47 129q0 60 -42 99.5t-130 39.5v29h584v-29q-105 0 -216 -77t-206 -193l-344 -465v-254q0 -143 12.5 -230.5t45 -142.5t84 -75.5t135.5 -20.5v-29h-584v29q113 0 171.5 41 t82.5 139t24 289v254l-352 477q-93 111 -202 184.5t-210 73.5zM739 1608l252 166l23 -31l-252 -166z" />
<glyph unicode="&#xde;" horiz-adv-x="1294" d="M92 1487v29h311v-279h279q252 0 386 -109.5t134 -316.5q0 -401 -514 -401h-285q3 -95 12.5 -156t32 -108t63.5 -71.5t100.5 -36t150.5 -11.5v-29h-666v29q85 0 137 20.5t85 75.5t45 142.5t12 230.5v596q0 46 -2 82t-9 79t-19 75t-33.5 63t-50.5 51t-72 32.5t-97 12.5z M403 436h299q115 0 202.5 25.5t136.5 63.5t80 90.5t40.5 97.5t9.5 94q0 165 -118 236t-348 71h-302v-618v-60z" />
<glyph unicode="&#xdf;" horiz-adv-x="1304" d="M92 0v29q54 0 97 12.5t72 32.5t50.5 51t33.5 63t19 75t9 79t2 82v584q0 239 123 393.5t311 154.5q76 0 137 -27.5t98 -74t56.5 -102.5t19.5 -117q0 -70 -26 -123.5t-67 -85t-90.5 -55t-99.5 -38.5t-91 -29t-67 -33t-26 -44q0 -27 29 -49.5t76 -41t103.5 -39.5 t112.5 -51.5t103 -69t76 -100t29 -138.5q0 -106 -54 -186.5t-147 -122t-216.5 -52t-262.5 22.5v127q95 -28 205.5 -29t208.5 25t162.5 90.5t64.5 157.5q0 54 -22.5 99.5t-59 77t-83 59t-95.5 47t-95.5 40.5t-83 39.5t-59 43t-22.5 52.5q0 41 47.5 69.5t115 50t135 48 t115 78.5t47.5 127q0 72 -42.5 120.5t-101.5 67.5t-130 19q-75 0 -145 -23.5t-129.5 -69.5t-95.5 -126t-36 -182v-1008h-311z" />
<glyph unicode="&#xe0;" d="M82 252q0 183 190 258q93 36 212.5 47.5t301.5 11.5q-1 195 -82.5 284t-234.5 89q-136 0 -225.5 -64.5t-89.5 -193.5h-21q0 169 97.5 275t261.5 106q173 0 249 -126t76 -372q0 -36 -2 -145t-2 -131q0 -98 25.5 -148.5t87.5 -50.5q55 0 83.5 39t28.5 102h17 q0 -61 -5 -104.5t-19 -82t-41.5 -58t-69.5 -19.5q-70 0 -102 64t-32 211v43h-12q-105 -318 -391 -318q-149 0 -225 81.5t-76 201.5zM111 274q0 -53 24.5 -91t67 -56.5t87 -26.5t95.5 -8q195 0 298 104t103 293v56q-107 0 -179 -2.5t-167.5 -16t-158.5 -39.5 q-79 -32 -124.5 -86.5t-45.5 -126.5zM279 1378l26 27l219 -207l-26 -27z" />
<glyph unicode="&#xe1;" d="M82 252q0 183 190 258q93 36 212.5 47.5t301.5 11.5q-1 195 -82.5 284t-234.5 89q-136 0 -225.5 -64.5t-89.5 -193.5h-21q0 169 97.5 275t261.5 106q173 0 249 -126t76 -372q0 -36 -2 -145t-2 -131q0 -98 25.5 -148.5t87.5 -50.5q55 0 83.5 39t28.5 102h17 q0 -61 -5 -104.5t-19 -82t-41.5 -58t-69.5 -19.5q-70 0 -102 64t-32 211v43h-12q-105 -318 -391 -318q-149 0 -225 81.5t-76 201.5zM111 274q0 -53 24.5 -91t67 -56.5t87 -26.5t95.5 -8q195 0 298 104t103 293v56q-107 0 -179 -2.5t-167.5 -16t-158.5 -39.5 q-79 -32 -124.5 -86.5t-45.5 -126.5zM461 1198l219 207l27 -27l-220 -207z" />
<glyph unicode="&#xe2;" d="M82 252q0 183 190 258q93 36 212.5 47.5t301.5 11.5q-1 195 -82.5 284t-234.5 89q-136 0 -225.5 -64.5t-89.5 -193.5h-21q0 169 97.5 275t261.5 106q173 0 249 -126t76 -372q0 -36 -2 -145t-2 -131q0 -98 25.5 -148.5t87.5 -50.5q55 0 83.5 39t28.5 102h17 q0 -61 -5 -104.5t-19 -82t-41.5 -58t-69.5 -19.5q-70 0 -102 64t-32 211v43h-12q-105 -318 -391 -318q-149 0 -225 81.5t-76 201.5zM111 274q0 -53 24.5 -91t67 -56.5t87 -26.5t95.5 -8q195 0 298 104t103 293v56q-107 0 -179 -2.5t-167.5 -16t-158.5 -39.5 q-79 -32 -124.5 -86.5t-45.5 -126.5zM299 1188l217 203l219 -203l-20 -23l-199 162l-197 -162z" />
<glyph unicode="&#xe3;" d="M82 252q0 183 190 258q93 36 212.5 47.5t301.5 11.5q-1 195 -82.5 284t-234.5 89q-136 0 -225.5 -64.5t-89.5 -193.5h-21q0 169 97.5 275t261.5 106q173 0 249 -126t76 -372q0 -36 -2 -145t-2 -131q0 -98 25.5 -148.5t87.5 -50.5q55 0 83.5 39t28.5 102h17 q0 -61 -5 -104.5t-19 -82t-41.5 -58t-69.5 -19.5q-70 0 -102 64t-32 211v43h-12q-105 -318 -391 -318q-149 0 -225 81.5t-76 201.5zM111 274q0 -53 24.5 -91t67 -56.5t87 -26.5t95.5 -8q195 0 298 104t103 293v56q-107 0 -179 -2.5t-167.5 -16t-158.5 -39.5 q-79 -32 -124.5 -86.5t-45.5 -126.5zM266 1233q9 53 47.5 84t96.5 31q44 0 79 -20.5t68 -41t74 -20.5q82 0 104 77l33 -6q-7 -44 -42.5 -78t-98.5 -34q-45 0 -80.5 20.5t-68.5 41t-70 20.5q-42 0 -72 -21t-37 -57z" />
<glyph unicode="&#xe4;" d="M82 252q0 183 190 258q93 36 212.5 47.5t301.5 11.5q-1 195 -82.5 284t-234.5 89q-136 0 -225.5 -64.5t-89.5 -193.5h-21q0 169 97.5 275t261.5 106q173 0 249 -126t76 -372q0 -36 -2 -145t-2 -131q0 -98 25.5 -148.5t87.5 -50.5q55 0 83.5 39t28.5 102h17 q0 -61 -5 -104.5t-19 -82t-41.5 -58t-69.5 -19.5q-70 0 -102 64t-32 211v43h-12q-105 -318 -391 -318q-149 0 -225 81.5t-76 201.5zM111 274q0 -53 24.5 -91t67 -56.5t87 -26.5t95.5 -8q195 0 298 104t103 293v56q-107 0 -179 -2.5t-167.5 -16t-158.5 -39.5 q-79 -32 -124.5 -86.5t-45.5 -126.5zM270 1300q0 43 27 70t70 27t69.5 -27t26.5 -70t-26.5 -70.5t-69.5 -27.5t-70 27.5t-27 70.5zM571 1300q0 43 27 70t70 27t69.5 -27t26.5 -70t-26.5 -70.5t-69.5 -27.5t-70 27.5t-27 70.5z" />
<glyph unicode="&#xe5;" d="M82 252q0 183 190 258q93 36 212.5 47.5t301.5 11.5q-1 195 -82.5 284t-234.5 89q-136 0 -225.5 -64.5t-89.5 -193.5h-21q0 169 97.5 275t261.5 106q173 0 249 -126t76 -372q0 -36 -2 -145t-2 -131q0 -98 25.5 -148.5t87.5 -50.5q55 0 83.5 39t28.5 102h17 q0 -61 -5 -104.5t-19 -82t-41.5 -58t-69.5 -19.5q-70 0 -102 64t-32 211v43h-12q-105 -318 -391 -318q-149 0 -225 81.5t-76 201.5zM111 274q0 -53 24.5 -91t67 -56.5t87 -26.5t95.5 -8q195 0 298 104t103 293v56q-107 0 -179 -2.5t-167.5 -16t-158.5 -39.5 q-79 -32 -124.5 -86.5t-45.5 -126.5zM375 1272q0 63 40 104t103 41q64 0 104 -41t40 -104q0 -64 -40 -105t-104 -41q-63 0 -103 41.5t-40 104.5zM414 1272q0 -44 30 -73.5t74 -29.5q45 0 76 29.5t31 73.5t-31 73t-76 29q-44 0 -74 -29t-30 -73z" />
<glyph unicode="&#xe6;" horiz-adv-x="1789" d="M82 252q0 183 190 258q93 36 212.5 47.5t301.5 11.5q-1 196 -83 284.5t-234 88.5q-136 0 -225.5 -64.5t-89.5 -193.5h-21q0 169 97.5 275t261.5 106q148 0 224 -91.5t95 -271.5q42 167 159.5 265t291.5 98q108 0 192 -39.5t134 -106.5t75 -149t25 -174l-17 -16h-852 q-2 -4 -2 -13q-2 -16 -2 -49q0 -210 125 -318t342 -108q135 0 231.5 42.5t141.5 119.5h24q-32 -116 -147.5 -200.5t-280.5 -84.5q-188 0 -304 112t-148 302q-7 -60 -26.5 -117.5t-55 -111.5t-82 -95t-112.5 -65.5t-142 -24.5q-75 0 -133.5 23.5t-94 63.5t-53.5 89.5 t-18 106.5zM111 274q0 -53 25 -91t67 -56.5t85.5 -26.5t92.5 -8q196 0 301.5 114.5t105.5 307.5v6v25q-108 0 -180.5 -2.5t-168 -16t-158.5 -39.5q-79 -32 -124.5 -86.5t-45.5 -126.5zM821 604h838q-14 152 -115 245t-282 93q-172 0 -293 -86t-148 -252z" />
<glyph unicode="&#xe7;" d="M102 522q0 240 125.5 391.5t325.5 151.5q216 0 332 -188l8 2l53 145h21v-279h-21q-37 93 -136.5 148t-238.5 55q-127 0 -225.5 -46t-158.5 -144t-60 -236q0 -106 35.5 -189.5t97 -135t138.5 -78.5t165 -27q135 0 248 56.5t137 146.5h25q-31 -140 -133 -233t-275 -93 q-23 0 -33 2l-75 -125q39 14 82 11t79.5 -16.5t60 -44.5t23.5 -72q0 -88 -95.5 -117.5t-209.5 18.5l-2 27q66 -14 126.5 -14t103.5 23.5t43 64.5q0 44 -48 67.5t-107.5 22.5t-113.5 -9l99 166q-179 26 -287.5 176.5t-108.5 372.5z" />
<glyph unicode="&#xe8;" horiz-adv-x="1103" d="M102 514q0 247 127 399t346 152q108 0 192 -39.5t134 -106.5t75 -149t25 -174l-16 -16h-852q-4 -40 -4 -68q0 -203 125 -311.5t342 -108.5q135 0 231.5 42.5t141.5 119.5h24q-32 -116 -147.5 -200.5t-280.5 -84.5q-147 0 -253.5 73t-158 194.5t-51.5 277.5zM135 604h838 q-14 152 -115 245t-283 93q-172 0 -292.5 -86t-147.5 -252zM313 1378l27 27l219 -207l-27 -27z" />
<glyph unicode="&#xe9;" horiz-adv-x="1103" d="M102 514q0 247 127 399t346 152q108 0 192 -39.5t134 -106.5t75 -149t25 -174l-16 -16h-852q-4 -40 -4 -68q0 -203 125 -311.5t342 -108.5q135 0 231.5 42.5t141.5 119.5h24q-32 -116 -147.5 -200.5t-280.5 -84.5q-147 0 -253.5 73t-158 194.5t-51.5 277.5zM135 604h838 q-14 152 -115 245t-283 93q-172 0 -292.5 -86t-147.5 -252zM496 1198l219 207l26 -27l-219 -207z" />
<glyph unicode="&#xea;" horiz-adv-x="1103" d="M102 514q0 247 127 399t346 152q108 0 192 -39.5t134 -106.5t75 -149t25 -174l-16 -16h-852q-4 -40 -4 -68q0 -203 125 -311.5t342 -108.5q135 0 231.5 42.5t141.5 119.5h24q-32 -116 -147.5 -200.5t-280.5 -84.5q-147 0 -253.5 73t-158 194.5t-51.5 277.5zM135 604h838 q-14 152 -115 245t-283 93q-172 0 -292.5 -86t-147.5 -252zM334 1188l217 203l219 -203l-20 -23l-199 162l-197 -162z" />
<glyph unicode="&#xeb;" horiz-adv-x="1103" d="M102 514q0 247 127 399t346 152q108 0 192 -39.5t134 -106.5t75 -149t25 -174l-16 -16h-852q-4 -40 -4 -68q0 -203 125 -311.5t342 -108.5q135 0 231.5 42.5t141.5 119.5h24q-32 -116 -147.5 -200.5t-280.5 -84.5q-147 0 -253.5 73t-158 194.5t-51.5 277.5zM135 604h838 q-14 152 -115 245t-283 93q-172 0 -292.5 -86t-147.5 -252zM305 1300q0 43 26.5 70t69.5 27t70 -27t27 -70t-27 -70.5t-70 -27.5t-69.5 27.5t-26.5 70.5zM606 1300q0 43 26.5 70t69.5 27t70 -27t27 -70t-27 -70.5t-70 -27.5t-69.5 27.5t-26.5 70.5z" />
<glyph unicode="&#xec;" horiz-adv-x="598" d="M31 985v23l329 41v-510q0 -81 1 -133t4.5 -109t9.5 -90.5t17 -68t27 -53t38.5 -34t52 -21t68.5 -5.5v-25h-461v25q35 0 62.5 5.5t49.5 14.5t38 28.5t27.5 38.5t19 54.5t12 67.5t7 85.5t3 100t0.5 119.5v55q0 220 -66.5 305.5t-238.5 85.5zM35 1378l26 27l220 -207 l-27 -27z" />
<glyph unicode="&#xed;" horiz-adv-x="598" d="M31 985v23l329 41v-510q0 -81 1 -133t4.5 -109t9.5 -90.5t17 -68t27 -53t38.5 -34t52 -21t68.5 -5.5v-25h-461v25q35 0 62.5 5.5t49.5 14.5t38 28.5t27.5 38.5t19 54.5t12 67.5t7 85.5t3 100t0.5 119.5v55q0 220 -66.5 305.5t-238.5 85.5zM217 1198l219 207l27 -27 l-219 -207z" />
<glyph unicode="&#xee;" horiz-adv-x="598" d="M31 985v23l329 41v-510q0 -81 1 -133t4.5 -109t9.5 -90.5t17 -68t27 -53t38.5 -34t52 -21t68.5 -5.5v-25h-461v25q35 0 62.5 5.5t49.5 14.5t38 28.5t27.5 38.5t19 54.5t12 67.5t7 85.5t3 100t0.5 119.5v55q0 220 -66.5 305.5t-238.5 85.5zM55 1188l217 203l220 -203 l-21 -23l-199 162l-196 -162z" />
<glyph unicode="&#xef;" horiz-adv-x="598" d="M27 1300q0 43 26.5 70t69.5 27t69.5 -27t26.5 -70t-26.5 -70.5t-69.5 -27.5t-69.5 27.5t-26.5 70.5zM31 985v23l329 41v-510q0 -81 1 -133t4.5 -109t9.5 -90.5t17 -68t27 -53t38.5 -34t52 -21t68.5 -5.5v-25h-461v25q35 0 62.5 5.5t49.5 14.5t38 28.5t27.5 38.5t19 54.5 t12 67.5t7 85.5t3 100t0.5 119.5v55q0 220 -66.5 305.5t-238.5 85.5zM328 1300q0 43 26.5 70t69.5 27t69.5 -27t26.5 -70t-26.5 -70.5t-69.5 -27.5t-69.5 27.5t-26.5 70.5z" />
<glyph unicode="&#xf0;" horiz-adv-x="1228" d="M102 518q0 240 134 393.5t346 153.5q153 0 258.5 -80t160.5 -205l5 2q-69 308 -258 500l-259 -94l-8 24l246 91q-106 99 -240 161l66 92q148 -74 258 -225l207 76l8 -25l-199 -71q116 -166 177 -384t61 -415v-2q0 -243 -134.5 -392t-344.5 -149q-216 0 -350 155t-134 394 zM129 520q0 -210 123.5 -319t331.5 -109t331 109t123 319t-122.5 316t-331.5 106t-332 -106t-123 -316z" />
<glyph unicode="&#xf1;" horiz-adv-x="1327" d="M31 987v23l301 41l24 -355h13q43 162 148 265.5t259 103.5q90 0 152 -37t96.5 -109.5t49.5 -164t16 -215.5q0 -72 0.5 -119.5t3 -100.5t7 -85t12.5 -67t19.5 -55t27 -39t37.5 -28t48.5 -14.5t61.5 -5.5v-25h-461v25q133 0 176 86.5t43 308.5q0 115 -8 196.5t-28 146.5 t-54 103.5t-84.5 58t-122.5 19.5q-62 0 -117 -13t-108.5 -46t-92.5 -83t-63.5 -129.5t-26.5 -180.5q1 -96 3.5 -156t10.5 -118.5t22 -90.5t38.5 -57.5t59 -35t84.5 -9.5v-25h-461v25q35 0 62.5 5.5t49.5 14.5t38 28.5t27.5 38.5t19 54.5t12 67.5t7 85.5t3 100t0.5 119.5v90 q-11 181 -82 269.5t-223 88.5zM416 1233q9 53 47 84t96 31q44 0 79 -20.5t68 -41t74 -20.5q83 0 105 77l33 -6q-7 -44 -43 -78t-99 -34q-45 0 -80.5 20.5t-68.5 41t-70 20.5q-42 0 -71.5 -21t-36.5 -57z" />
<glyph unicode="&#xf2;" horiz-adv-x="1167" d="M102 520q0 240 134.5 392.5t347.5 152.5t347 -152.5t134 -392.5q0 -158 -60.5 -283.5t-170.5 -196.5t-250 -71q-213 0 -347.5 155.5t-134.5 395.5zM129 520q0 -210 123.5 -319t331.5 -109t331 109t123 319t-122.5 316t-331.5 106t-332 -106t-123 -316zM344 1378l27 27 l219 -207l-27 -27z" />
<glyph unicode="&#xf3;" horiz-adv-x="1167" d="M102 520q0 240 134.5 392.5t347.5 152.5t347 -152.5t134 -392.5q0 -158 -60.5 -283.5t-170.5 -196.5t-250 -71q-213 0 -347.5 155.5t-134.5 395.5zM129 520q0 -210 123.5 -319t331.5 -109t331 109t123 319t-122.5 316t-331.5 106t-332 -106t-123 -316zM526 1198l219 207 l27 -27l-219 -207z" />
<glyph unicode="&#xf4;" horiz-adv-x="1167" d="M102 520q0 240 134.5 392.5t347.5 152.5t347 -152.5t134 -392.5q0 -158 -60.5 -283.5t-170.5 -196.5t-250 -71q-213 0 -347.5 155.5t-134.5 395.5zM129 520q0 -210 123.5 -319t331.5 -109t331 109t123 319t-122.5 316t-331.5 106t-332 -106t-123 -316zM365 1188l217 203 l219 -203l-21 -23l-198 162l-197 -162z" />
<glyph unicode="&#xf5;" horiz-adv-x="1167" d="M102 520q0 240 134.5 392.5t347.5 152.5t347 -152.5t134 -392.5q0 -158 -60.5 -283.5t-170.5 -196.5t-250 -71q-213 0 -347.5 155.5t-134.5 395.5zM129 520q0 -210 123.5 -319t331.5 -109t331 109t123 319t-122.5 316t-331.5 106t-332 -106t-123 -316zM332 1233 q9 53 47 84t96 31q44 0 79 -20.5t68 -41t74 -20.5q83 0 105 77l33 -6q-7 -44 -43 -78t-99 -34q-45 0 -80.5 20.5t-68.5 41t-70 20.5q-42 0 -71.5 -21t-36.5 -57z" />
<glyph unicode="&#xf6;" horiz-adv-x="1167" d="M102 520q0 240 134.5 392.5t347.5 152.5t347 -152.5t134 -392.5q0 -158 -60.5 -283.5t-170.5 -196.5t-250 -71q-213 0 -347.5 155.5t-134.5 395.5zM129 520q0 -210 123.5 -319t331.5 -109t331 109t123 319t-122.5 316t-331.5 106t-332 -106t-123 -316zM336 1300 q0 43 26.5 70t69.5 27t69.5 -27t26.5 -70t-26.5 -70.5t-69.5 -27.5t-69.5 27.5t-26.5 70.5zM637 1300q0 43 26.5 70t69.5 27t69.5 -27t26.5 -70t-26.5 -70.5t-69.5 -27.5t-69.5 27.5t-26.5 70.5z" />
<glyph unicode="&#xf7;" horiz-adv-x="1064" d="M123 561v31h819v-31h-819zM471 217q0 41 27 67.5t67 26.5q41 0 67.5 -26.5t26.5 -67.5t-26.5 -67.5t-67.5 -26.5q-40 0 -67 26.5t-27 67.5zM471 893q0 41 27 67.5t67 26.5q41 0 67.5 -26.5t26.5 -67.5t-26.5 -67.5t-67.5 -26.5q-40 0 -67 26.5t-27 67.5z" />
<glyph unicode="&#xf8;" horiz-adv-x="1167" d="M102 520q0 240 134.5 392.5t347.5 152.5q155 0 274 -86l68 104l26 -16l-67 -109q86 -73 133 -186t47 -252q0 -158 -60.5 -283.5t-170.5 -196.5t-250 -71q-154 0 -273 86l-71 -112l-27 16l74 117q-87 73 -136 188.5t-49 255.5zM129 520q0 -135 53 -229.5t150 -145.5 l479 756q-100 41 -229 41q-208 0 -330.5 -106.5t-122.5 -315.5zM360 133q96 -41 224 -41q208 0 331 109t123 319q0 268 -198 369z" />
<glyph unicode="&#xf9;" horiz-adv-x="1253" d="M-41 1004v22l330 41v-553q0 -213 74 -318.5t233 -105.5q60 0 115.5 15t107.5 49.5t90 87t61 133t23 180.5v57q0 220 -79 306t-283 86v22l387 41v-733q0 -54 5 -94t21.5 -83t45.5 -70t81 -44.5t123 -17.5v-25l-301 -31v369h-8q-43 -162 -148 -265.5t-259 -103.5 q-91 0 -154 38.5t-97 114t-48.5 169.5t-14.5 223v98q0 220 -66.5 306t-238.5 86zM356 1378l27 27l219 -207l-27 -27z" />
<glyph unicode="&#xfa;" horiz-adv-x="1253" d="M-41 1004v22l330 41v-553q0 -213 74 -318.5t233 -105.5q60 0 115.5 15t107.5 49.5t90 87t61 133t23 180.5v57q0 220 -79 306t-283 86v22l387 41v-733q0 -54 5 -94t21.5 -83t45.5 -70t81 -44.5t123 -17.5v-25l-301 -31v369h-8q-43 -162 -148 -265.5t-259 -103.5 q-91 0 -154 38.5t-97 114t-48.5 169.5t-14.5 223v98q0 220 -66.5 306t-238.5 86zM539 1198l219 207l26 -27l-219 -207z" />
<glyph unicode="&#xfb;" horiz-adv-x="1253" d="M-41 1004v22l330 41v-553q0 -213 74 -318.5t233 -105.5q60 0 115.5 15t107.5 49.5t90 87t61 133t23 180.5v57q0 220 -79 306t-283 86v22l387 41v-733q0 -54 5 -94t21.5 -83t45.5 -70t81 -44.5t123 -17.5v-25l-301 -31v369h-8q-43 -162 -148 -265.5t-259 -103.5 q-91 0 -154 38.5t-97 114t-48.5 169.5t-14.5 223v98q0 220 -66.5 306t-238.5 86zM377 1188l217 203l219 -203l-20 -23l-199 162l-197 -162z" />
<glyph unicode="&#xfc;" horiz-adv-x="1253" d="M-41 1004v22l330 41v-553q0 -213 74 -318.5t233 -105.5q60 0 115.5 15t107.5 49.5t90 87t61 133t23 180.5v57q0 220 -79 306t-283 86v22l387 41v-733q0 -54 5 -94t21.5 -83t45.5 -70t81 -44.5t123 -17.5v-25l-301 -31v369h-8q-43 -162 -148 -265.5t-259 -103.5 q-91 0 -154 38.5t-97 114t-48.5 169.5t-14.5 223v98q0 220 -66.5 306t-238.5 86zM348 1300q0 43 26.5 70t69.5 27t70 -27t27 -70t-27 -70.5t-70 -27.5t-69.5 27.5t-26.5 70.5zM649 1300q0 43 26.5 70t69.5 27t70 -27t27 -70t-27 -70.5t-70 -27.5t-69.5 27.5t-26.5 70.5z" />
<glyph unicode="&#xfd;" horiz-adv-x="1206" d="M10 -346h25q0 -62 30.5 -104t70.5 -57t85 -15q111 0 191 113t186 395l-4 14l-289 774q-50 111 -106.5 165t-157.5 60v25h487v-25q-204 0 -204 -145q0 -42 18 -104l203 -539h137l203 539q18 62 18 104q0 145 -205 145v25h488v-25q-102 -6 -159 -62t-107 -171l-289 -766 q-122 -326 -161 -412q-74 -159 -149 -206q-44 -27 -100 -27q-102 0 -156.5 81t-54.5 218zM547 1198l219 207l27 -27l-220 -207z" />
<glyph unicode="&#xfe;" horiz-adv-x="1269" d="M-31 1538v23l330 41v-865h10q46 151 152.5 238.5t261.5 87.5q202 0 323 -144t121 -378q0 -163 -58.5 -293.5t-167 -205.5t-247.5 -75q-140 0 -240 78t-145 217h-10v-239q0 -89 1.5 -137t7 -107.5t17.5 -88t33 -61t53.5 -45t78 -21.5t108.5 -9v-25h-543v25q35 0 62.5 5.5 t49.5 14.5t38 28.5t27.5 38.5t19 54.5t12 67.5t7 85.5t3 100t0.5 119.5v1079q0 220 -66.5 305.5t-238.5 85.5zM301 514q0 -141 54 -238t144 -141.5t210 -44.5q89 0 166 26t137 76t94.5 132.5t34.5 187.5t-34.5 188t-94.5 134.5t-137.5 78.5t-167.5 27q-184 0 -295 -109 t-111 -317z" />
<glyph unicode="&#xff;" horiz-adv-x="1206" d="M10 -346h25q0 -62 30.5 -104t70.5 -57t85 -15q111 0 191 113t186 395l-4 14l-289 774q-50 111 -106.5 165t-157.5 60v25h487v-25q-204 0 -204 -145q0 -42 18 -104l203 -539h137l203 539q18 62 18 104q0 145 -205 145v25h488v-25q-102 -6 -159 -62t-107 -171l-289 -766 q-122 -326 -161 -412q-74 -159 -149 -206q-44 -27 -100 -27q-102 0 -156.5 81t-54.5 218zM356 1300q0 43 27 70t70 27t69.5 -27t26.5 -70t-26.5 -70.5t-69.5 -27.5t-70 27.5t-27 70.5zM657 1300q0 43 27 70t70 27t69.5 -27t26.5 -70t-26.5 -70.5t-69.5 -27.5t-70 27.5 t-27 70.5z" />
<glyph unicode="&#x152;" horiz-adv-x="1976" d="M123 764q0 153 36.5 294t104 253t173.5 178.5t235 66.5q122 0 208 -55t126 -141v156h817v-353h-29q0 54 -6.5 93t-18 69t-35.5 49t-50.5 31.5t-71.5 18.5t-90 8t-115 2h-373v-662h414l82 217h29v-463h-29l-82 219h-414v-663h434q61 0 102 1.5t82.5 6t68 12t51.5 21.5 t39 32.5t25 46t15 62t4 80.5h29v-344h-878v168q-37 -86 -116.5 -142.5t-205.5 -56.5q-104 0 -194.5 42.5t-157 117t-114 175t-71.5 217.5t-24 243zM152 768q0 -308 147 -486t393 -178q138 0 226 57.5t88 160.5v876q0 104 -88.5 163.5t-229.5 59.5q-240 0 -388 -172 t-148 -481z" />
<glyph unicode="&#x153;" horiz-adv-x="2041" d="M102 520q0 240 134.5 392.5t347.5 152.5q180 0 306 -112t163 -298q33 188 153.5 299t306.5 111q108 0 192 -39.5t134 -106.5t75 -149t25 -174l-16 -16h-852q-4 -40 -4 -68q0 -203 125 -311.5t342 -108.5q135 0 231.5 42.5t141.5 119.5h24q-32 -116 -147.5 -200.5 t-280.5 -84.5q-187 0 -302.5 111.5t-147.5 300.5q-37 -187 -163 -299.5t-306 -112.5q-213 0 -347.5 155.5t-134.5 395.5zM129 520q0 -210 123.5 -319t331.5 -109t331 109t123 319t-122.5 316t-331.5 106t-332 -106t-123 -316zM1073 604h838q-14 152 -115 245t-283 93 q-172 0 -292.5 -86t-147.5 -252z" />
<glyph unicode="&#x178;" horiz-adv-x="1599" d="M20 1487v29h584v-29q-88 0 -130 -40t-42 -101q0 -35 15 -67.5t47 -80.5l305 -420l321 441q47 73 47 129q0 60 -42 99.5t-130 39.5v29h584v-29q-105 0 -216 -77t-206 -193l-344 -465v-254q0 -143 12.5 -230.5t45 -142.5t84 -75.5t135.5 -20.5v-29h-584v29q113 0 171.5 41 t82.5 139t24 289v254l-352 477q-93 111 -202 184.5t-210 73.5zM549 1698q0 43 26.5 69.5t69.5 26.5t69.5 -26.5t26.5 -69.5t-27 -71t-69 -28t-69 28t-27 71zM858 1698q0 43 26.5 69.5t69.5 26.5t70 -26.5t27 -69.5t-27 -71t-70 -28q-42 0 -69 28t-27 71z" />
<glyph unicode="&#x2c6;" horiz-adv-x="722" d="M143 1188l217 203l220 -203l-21 -23l-199 162l-196 -162z" />
<glyph unicode="&#x2dc;" horiz-adv-x="788" d="M143 1233q9 53 47.5 84t96.5 31q44 0 79 -20.5t68 -41t74 -20.5q82 0 104 77l33 -6q-7 -44 -42.5 -78t-98.5 -34q-45 0 -80.5 20.5t-68.5 41t-70 20.5q-42 0 -72 -21t-37 -57z" />
<glyph unicode="&#x2000;" horiz-adv-x="923" />
<glyph unicode="&#x2001;" horiz-adv-x="1847" />
<glyph unicode="&#x2002;" horiz-adv-x="923" />
<glyph unicode="&#x2003;" horiz-adv-x="1847" />
<glyph unicode="&#x2004;" horiz-adv-x="615" />
<glyph unicode="&#x2005;" horiz-adv-x="461" />
<glyph unicode="&#x2006;" horiz-adv-x="307" />
<glyph unicode="&#x2007;" horiz-adv-x="307" />
<glyph unicode="&#x2008;" horiz-adv-x="230" />
<glyph unicode="&#x2009;" horiz-adv-x="369" />
<glyph unicode="&#x200a;" horiz-adv-x="102" />
<glyph unicode="&#x2010;" horiz-adv-x="800" d="M143 561v31h514v-31h-514z" />
<glyph unicode="&#x2011;" horiz-adv-x="800" d="M143 561v31h514v-31h-514z" />
<glyph unicode="&#x2012;" horiz-adv-x="800" d="M143 561v31h514v-31h-514z" />
<glyph unicode="&#x2013;" horiz-adv-x="1392" d="M184 561v31h1024v-31h-1024z" />
<glyph unicode="&#x2014;" horiz-adv-x="2326" d="M143 561v31h2040v-31h-2040z" />
<glyph unicode="&#x2018;" horiz-adv-x="530" d="M143 1384q0 52 10 101t33 97.5t68 81t108 38.5v-27q-55 -7 -94 -35.5t-58.5 -69.5t-27.5 -80.5t-8 -80.5q37 29 88 29q55 0 90 -32t35 -87q0 -52 -33 -85.5t-88 -33.5q-123 0 -123 184z" />
<glyph unicode="&#x2019;" horiz-adv-x="530" d="M143 1581q0 52 33 85.5t88 33.5q123 0 123 -184q0 -52 -10 -101t-33 -97.5t-68 -81t-108 -38.5v27q55 7 94 35.5t58.5 69.5t27.5 80.5t8 80.5q-37 -29 -88 -29q-55 0 -90 32t-35 87z" />
<glyph unicode="&#x201a;" horiz-adv-x="530" d="M143 88q0 52 33 85.5t88 33.5q123 0 123 -184q0 -52 -10 -101t-33 -97.5t-68 -81t-108 -38.5v27q55 7 94 35.5t58.5 69.5t27.5 80.5t8 80.5q-37 -29 -88 -29q-55 0 -90 32t-35 87z" />
<glyph unicode="&#x201c;" horiz-adv-x="851" d="M143 1382q0 52 10 101t33 97.5t68 81t108 38.5v-27q-55 -7 -94 -35.5t-58.5 -69.5t-27.5 -80.5t-8 -80.5q37 29 88 29q55 0 90 -32t35 -87q0 -52 -33 -85.5t-88 -33.5q-123 0 -123 184zM465 1382q0 52 10 101t33 97.5t68 81t108 38.5v-27q-55 -7 -94 -35.5t-58.5 -69.5 t-27.5 -80.5t-8 -80.5q37 29 88 29q55 0 90 -32t35 -87q0 -52 -33 -85.5t-88 -33.5q-123 0 -123 184z" />
<glyph unicode="&#x201d;" horiz-adv-x="851" d="M143 1581q0 52 33 85.5t88 33.5q123 0 123 -184q0 -52 -10 -101t-33 -97.5t-68 -81t-108 -38.5v27q55 7 94 35.5t58.5 69.5t27.5 80.5t8 80.5q-37 -29 -88 -29q-55 0 -90 32t-35 87zM465 1581q0 52 33 85.5t88 33.5q123 0 123 -184q0 -41 -6 -80t-21 -80.5t-39 -74 t-63.5 -55.5t-90.5 -28v27q55 7 94 35.5t58.5 69.5t28 80.5t8.5 80.5q-37 -29 -88 -29q-55 0 -90 32t-35 87z" />
<glyph unicode="&#x201e;" horiz-adv-x="851" d="M143 88q0 52 33 85.5t88 33.5q123 0 123 -184q0 -52 -10 -101t-33 -97.5t-68 -81t-108 -38.5v27q55 7 94 35.5t58.5 69.5t27.5 80.5t8 80.5q-37 -29 -88 -29q-55 0 -90 32t-35 87zM465 88q0 52 33 85.5t88 33.5q123 0 123 -184q0 -41 -6 -80t-21 -80.5t-39 -74 t-63.5 -55.5t-90.5 -28v27q55 7 94 35.5t58.5 69.5t28 80.5t8.5 80.5q-37 -29 -88 -29q-55 0 -90 32t-35 87z" />
<glyph unicode="&#x2022;" horiz-adv-x="675" d="M143 578q0 84 56.5 138t140.5 54t138 -54t54 -138q0 -85 -54 -141t-138 -56t-140.5 55.5t-56.5 141.5z" />
<glyph unicode="&#x2026;" horiz-adv-x="1419" d="M143 74q0 44 30 73t75 29q44 0 73 -29t29 -73q0 -46 -29 -75.5t-73 -29.5q-45 0 -75 30t-30 75zM606 74q0 44 30 73t75 29q44 0 73 -29t29 -73q0 -46 -29 -75.5t-73 -29.5q-45 0 -75 30t-30 75zM1069 74q0 44 30 73t75 29q44 0 73 -29t29 -73q0 -46 -29 -75.5t-73 -29.5 q-45 0 -75 30t-30 75z" />
<glyph unicode="&#x202f;" horiz-adv-x="369" />
<glyph unicode="&#x2039;" horiz-adv-x="677" d="M143 582l392 -287v35l-347 254v10l347 254v35l-392 -287v-14z" />
<glyph unicode="&#x203a;" horiz-adv-x="677" d="M143 295l392 287v14l-392 287v-35l346 -254v-10l-346 -254v-35z" />
<glyph unicode="&#x205f;" horiz-adv-x="461" />
<glyph unicode="&#x20ac;" horiz-adv-x="1257" d="M-61 649v31h198q-2 29 -2 86q0 61 2 90h-198v31h200q28 311 181 490t391 179q331 0 434 -378h-29q-118 256 -411 256q-103 0 -191 -31.5t-161 -95.5t-120.5 -171t-60.5 -249h647v-31h-651q-2 -29 -2 -88t2 -88h651v-31h-647q13 -144 60.5 -253.5t119.5 -174.5t158.5 -97 t185.5 -32q295 0 420 266h29q-147 -389 -457 -389q-225 0 -374 184.5t-175 495.5h-200z" />
<glyph unicode="&#x25fc;" horiz-adv-x="1024" d="M0 0v1024h1024v-1024h-1024z" />
<glyph unicode="&#xfb03;" horiz-adv-x="1998" d="M31 932v92h276v168q0 62 2.5 109t9 102.5t18 96t31 80t46.5 64.5t66.5 40.5t88.5 15.5q115 0 173.5 -75.5t58.5 -197.5h-25q0 66 -56.5 108t-148.5 42q-58 0 -100 -18t-68.5 -51t-42.5 -85.5t-22 -113.5t-6 -144v-141h680v229q0 72 10.5 137t37.5 130.5t69 113t111 77.5 t157 30q78 0 140 -23t104.5 -63.5t70.5 -98.5t40.5 -125.5t12.5 -146.5h-24q0 151 -91 242.5t-255 91.5q-177 0 -268 -109.5t-91 -302.5v-182h725v-485q0 -72 0.5 -119.5t3 -100.5t7 -85t12.5 -67t19.5 -55t27 -39t37.5 -28t48.5 -14.5t61.5 -5.5v-25h-460v25q35 0 62.5 5.5 t49.5 14.5t38 28.5t27.5 38.5t19 54.5t12 67.5t7 85.5t3 100t0.5 119.5v55q0 87 -14.5 147.5t-40.5 98t-71 58t-95.5 27.5t-124.5 7h-355v-596q3 -76 15 -128t40.5 -96t81 -65.5t130.5 -21.5v-25h-510v25q63 0 106 20.5t66 63.5t33.5 93t13.5 124v606h-680v-596 q3 -76 15 -128t40 -96t80.5 -65.5t130.5 -21.5v-25h-510v25q63 0 106 20.5t66 63.5t33.5 93t13.5 124v606h-276z" />
<glyph unicode="&#xfb04;" horiz-adv-x="1992" d="M31 932v92h276v168q0 62 2.5 109t9 102.5t18 96t31 80t46.5 64.5t66.5 40.5t88.5 15.5q115 0 173.5 -75.5t58.5 -197.5h-25q0 66 -56.5 108t-148.5 42q-58 0 -100 -18t-68.5 -51t-42.5 -85.5t-22 -113.5t-6 -144v-141h678v229q0 60 5 114.5t17 111.5t33.5 102.5 t51.5 82.5t75 57t100 20q103 0 168 -68l295 68v-1202q0 -72 0.5 -119.5t3 -100.5t7 -85t12.5 -67t19.5 -55t27 -39t37.5 -28t48.5 -14.5t61.5 -5.5v-25h-461v25q35 0 62.5 5.5t49.5 14.5t38 28.5t28 38.5t19.5 54.5t12 67.5t7 85.5t3 100t0.5 119.5v809q0 145 -87.5 221 t-254.5 76q-105 0 -176 -30t-109.5 -90t-54 -136t-15.5 -183v-182h410v-92h-410v-596q3 -76 15 -128t40 -96t80.5 -65.5t130.5 -21.5v-25h-509v25q63 0 106 20.5t66 63.5t33.5 93t13.5 124v606h-678v-596q3 -76 15 -128t40 -96t80.5 -65.5t130.5 -21.5v-25h-510v25 q63 0 106 20.5t66 63.5t33.5 93t13.5 124v606h-276z" />
</font>
</defs>
</svg>
